<mxfile host="app.diagrams.net" modified="2020-12-03T14:55:29.795Z" agent="5.0 (Windows NT 10.0; Win64; x64) AppleWebKit/537.36 (KHTML, like Gecko) Chrome/86.0.4240.198 Safari/537.36" etag="ZYMxrYpFYD6BOu0GcO7U" version="13.10.6" type="github">
  <diagram id="1R9pqmuIDQbFG5ekNz2X" name="Page-1">
    <mxGraphModel dx="1014" dy="2202" grid="1" gridSize="10" guides="1" tooltips="1" connect="1" arrows="1" fold="1" page="1" pageScale="1" pageWidth="1169" pageHeight="1654" math="0" shadow="0">
      <root>
        <mxCell id="0" />
        <mxCell id="1" parent="0" />
        <mxCell id="AeCEf1UCao7Z_vWgHj9i-1" value="Vehicle.Vehicle.CarTransporter" style="swimlane;fontStyle=1;align=center;verticalAlign=top;childLayout=stackLayout;horizontal=1;startSize=28;horizontalStack=0;resizeParent=1;resizeParentMax=0;resizeLast=0;collapsible=1;marginBottom=0;strokeColor=#000000;fillColor=none;" parent="1" vertex="1">
          <mxGeometry x="1720" y="932" width="360" height="648" as="geometry" />
        </mxCell>
        <mxCell id="AeCEf1UCao7Z_vWgHj9i-3" value="&lt;&lt;final&gt;&gt; - ramp : Vehicle.Ramp&#xa;" style="text;strokeColor=none;fillColor=none;align=left;verticalAlign=top;spacingLeft=4;spacingRight=4;overflow=hidden;rotatable=0;points=[[0,0.5],[1,0.5]];portConstraint=eastwest;fontStyle=0" parent="AeCEf1UCao7Z_vWgHj9i-1" vertex="1">
          <mxGeometry y="28" width="360" height="26" as="geometry" />
        </mxCell>
        <mxCell id="AeCEf1UCao7Z_vWgHj9i-4" value="&lt;&lt;final&gt;&gt; - maxSize: int" style="text;strokeColor=none;fillColor=none;align=left;verticalAlign=top;spacingLeft=4;spacingRight=4;overflow=hidden;rotatable=0;points=[[0,0.5],[1,0.5]];portConstraint=eastwest;" parent="AeCEf1UCao7Z_vWgHj9i-1" vertex="1">
          <mxGeometry y="54" width="360" height="26" as="geometry" />
        </mxCell>
        <mxCell id="AeCEf1UCao7Z_vWgHj9i-5" value="&lt;&lt;final&gt;&gt; - cars: List&lt;Vehicle.Vehicle.Car&gt;" style="text;strokeColor=none;fillColor=none;align=left;verticalAlign=top;spacingLeft=4;spacingRight=4;overflow=hidden;rotatable=0;points=[[0,0.5],[1,0.5]];portConstraint=eastwest;" parent="AeCEf1UCao7Z_vWgHj9i-1" vertex="1">
          <mxGeometry y="80" width="360" height="26" as="geometry" />
        </mxCell>
        <mxCell id="AeCEf1UCao7Z_vWgHj9i-6" value="" style="line;strokeWidth=1;fillColor=none;align=left;verticalAlign=middle;spacingTop=-1;spacingLeft=3;spacingRight=3;rotatable=0;labelPosition=right;points=[];portConstraint=eastwest;" parent="AeCEf1UCao7Z_vWgHj9i-1" vertex="1">
          <mxGeometry y="106" width="360" height="8" as="geometry" />
        </mxCell>
        <mxCell id="w_uHxVpiJhdYi6DjlOEM-58" value="+ Vehicle.Vehicle.CarTransporter(nrDoors : int, enginePower : double, &#xa;                   currentSpeed : double, color : Color, &#xa;                   modelName : String, maxSize : int)" style="text;strokeColor=none;fillColor=none;align=left;verticalAlign=top;spacingLeft=4;spacingRight=4;overflow=hidden;rotatable=0;points=[[0,0.5],[1,0.5]];portConstraint=eastwest;" parent="AeCEf1UCao7Z_vWgHj9i-1" vertex="1">
          <mxGeometry y="114" width="360" height="52" as="geometry" />
        </mxCell>
        <mxCell id="AeCEf1UCao7Z_vWgHj9i-8" value="+ raiseRamp(): void" style="text;strokeColor=none;fillColor=none;align=left;verticalAlign=top;spacingLeft=4;spacingRight=4;overflow=hidden;rotatable=0;points=[[0,0.5],[1,0.5]];portConstraint=eastwest;" parent="AeCEf1UCao7Z_vWgHj9i-1" vertex="1">
          <mxGeometry y="166" width="360" height="24" as="geometry" />
        </mxCell>
        <mxCell id="AeCEf1UCao7Z_vWgHj9i-9" value="+ lowerRamp(): void" style="text;strokeColor=none;fillColor=none;align=left;verticalAlign=top;spacingLeft=4;spacingRight=4;overflow=hidden;rotatable=0;points=[[0,0.5],[1,0.5]];portConstraint=eastwest;" parent="AeCEf1UCao7Z_vWgHj9i-1" vertex="1">
          <mxGeometry y="190" width="360" height="26" as="geometry" />
        </mxCell>
        <mxCell id="AeCEf1UCao7Z_vWgHj9i-10" value="+ isRampRaised(): boolean" style="text;strokeColor=none;fillColor=none;align=left;verticalAlign=top;spacingLeft=4;spacingRight=4;overflow=hidden;rotatable=0;points=[[0,0.5],[1,0.5]];portConstraint=eastwest;" parent="AeCEf1UCao7Z_vWgHj9i-1" vertex="1">
          <mxGeometry y="216" width="360" height="26" as="geometry" />
        </mxCell>
        <mxCell id="AeCEf1UCao7Z_vWgHj9i-113" value="+ getCars(): List&lt;Vehicle.Vehicle.Car&gt;" style="text;strokeColor=none;fillColor=none;align=left;verticalAlign=top;spacingLeft=4;spacingRight=4;overflow=hidden;rotatable=0;points=[[0,0.5],[1,0.5]];portConstraint=eastwest;shadow=1;" parent="AeCEf1UCao7Z_vWgHj9i-1" vertex="1">
          <mxGeometry y="242" width="360" height="26" as="geometry" />
        </mxCell>
        <mxCell id="AeCEf1UCao7Z_vWgHj9i-14" value="+ isCarCloseEnough(c : Vehicle.Vehicle.Car): boolean" style="text;strokeColor=none;fillColor=none;align=left;verticalAlign=top;spacingLeft=4;spacingRight=4;overflow=hidden;rotatable=0;points=[[0,0.5],[1,0.5]];portConstraint=eastwest;" parent="AeCEf1UCao7Z_vWgHj9i-1" vertex="1">
          <mxGeometry y="268" width="360" height="26" as="geometry" />
        </mxCell>
        <mxCell id="AeCEf1UCao7Z_vWgHj9i-11" value="+ isStationary(): boolean " style="text;strokeColor=none;fillColor=none;align=left;verticalAlign=top;spacingLeft=4;spacingRight=4;overflow=hidden;rotatable=0;points=[[0,0.5],[1,0.5]];portConstraint=eastwest;" parent="AeCEf1UCao7Z_vWgHj9i-1" vertex="1">
          <mxGeometry y="294" width="360" height="26" as="geometry" />
        </mxCell>
        <mxCell id="AeCEf1UCao7Z_vWgHj9i-114" value="+ isCarStationary(car : Vehicle.Vehicle.Car): boolean " style="text;strokeColor=none;fillColor=none;align=left;verticalAlign=top;spacingLeft=4;spacingRight=4;overflow=hidden;rotatable=0;points=[[0,0.5],[1,0.5]];portConstraint=eastwest;" parent="AeCEf1UCao7Z_vWgHj9i-1" vertex="1">
          <mxGeometry y="320" width="360" height="26" as="geometry" />
        </mxCell>
        <mxCell id="AeCEf1UCao7Z_vWgHj9i-12" value="+ loadCar(car : Vehicle.Vehicle.Car): void " style="text;strokeColor=none;fillColor=none;align=left;verticalAlign=top;spacingLeft=4;spacingRight=4;overflow=hidden;rotatable=0;points=[[0,0.5],[1,0.5]];portConstraint=eastwest;" parent="AeCEf1UCao7Z_vWgHj9i-1" vertex="1">
          <mxGeometry y="346" width="360" height="26" as="geometry" />
        </mxCell>
        <mxCell id="AeCEf1UCao7Z_vWgHj9i-13" value="&lt;span style=&quot;color: rgb(0 , 0 , 0) ; font-family: &amp;#34;helvetica&amp;#34; ; font-size: 12px ; font-style: normal ; font-weight: 400 ; letter-spacing: normal ; text-align: left ; text-indent: 0px ; text-transform: none ; word-spacing: 0px ; background-color: rgb(248 , 249 , 250) ; display: inline ; float: none&quot;&gt;&amp;nbsp;+ unloadCar(): void&amp;nbsp;&lt;/span&gt;" style="text;whiteSpace=wrap;html=1;fillColor=none;" parent="AeCEf1UCao7Z_vWgHj9i-1" vertex="1">
          <mxGeometry y="372" width="360" height="30" as="geometry" />
        </mxCell>
        <mxCell id="AeCEf1UCao7Z_vWgHj9i-116" value="+ lastLoadedIndex(): int" style="text;strokeColor=none;fillColor=none;align=left;verticalAlign=top;spacingLeft=4;spacingRight=4;overflow=hidden;rotatable=0;points=[[0,0.5],[1,0.5]];portConstraint=eastwest;shadow=1;" parent="AeCEf1UCao7Z_vWgHj9i-1" vertex="1">
          <mxGeometry y="402" width="360" height="26" as="geometry" />
        </mxCell>
        <mxCell id="AeCEf1UCao7Z_vWgHj9i-117" value="&lt;span style=&quot;color: rgb(0 , 0 , 0) ; font-family: &amp;#34;helvetica&amp;#34; ; font-size: 12px ; font-style: normal ; font-weight: 400 ; letter-spacing: normal ; text-align: left ; text-indent: 0px ; text-transform: none ; word-spacing: 0px ; background-color: rgb(248 , 249 , 250) ; display: inline ; float: none&quot;&gt;&amp;nbsp;+ canLoadCar(car : Vehicle.Vehicle.Car): boolean&lt;/span&gt;" style="text;whiteSpace=wrap;html=1;fillColor=none;" parent="AeCEf1UCao7Z_vWgHj9i-1" vertex="1">
          <mxGeometry y="428" width="360" height="30" as="geometry" />
        </mxCell>
        <mxCell id="AeCEf1UCao7Z_vWgHj9i-118" value="&lt;span style=&quot;color: rgb(0 , 0 , 0) ; font-family: &amp;#34;helvetica&amp;#34; ; font-size: 12px ; font-style: normal ; font-weight: 400 ; letter-spacing: normal ; text-align: left ; text-indent: 0px ; text-transform: none ; word-spacing: 0px ; background-color: rgb(248 , 249 , 250) ; display: inline ; float: none&quot;&gt;&amp;nbsp;+ canUnloadCar(): boolean&amp;nbsp;&lt;/span&gt;" style="text;whiteSpace=wrap;html=1;fillColor=none;" parent="AeCEf1UCao7Z_vWgHj9i-1" vertex="1">
          <mxGeometry y="458" width="360" height="30" as="geometry" />
        </mxCell>
        <mxCell id="AeCEf1UCao7Z_vWgHj9i-15" value="&lt;span style=&quot;color: rgb(0 , 0 , 0) ; font-family: &amp;#34;helvetica&amp;#34; ; font-size: 12px ; font-style: normal ; font-weight: 400 ; letter-spacing: normal ; text-align: left ; text-indent: 0px ; text-transform: none ; word-spacing: 0px ; background-color: rgb(248 , 249 , 250) ; display: inline ; float: none&quot;&gt;&amp;nbsp;+ canLoadOrUnloadCar(): boolean&amp;nbsp;&lt;/span&gt;" style="text;whiteSpace=wrap;html=1;fillColor=none;" parent="AeCEf1UCao7Z_vWgHj9i-1" vertex="1">
          <mxGeometry y="488" width="360" height="30" as="geometry" />
        </mxCell>
        <mxCell id="AeCEf1UCao7Z_vWgHj9i-16" value="+ speedFactor(): double" style="text;strokeColor=none;fillColor=none;align=left;verticalAlign=top;spacingLeft=4;spacingRight=4;overflow=hidden;rotatable=0;points=[[0,0.5],[1,0.5]];portConstraint=eastwest;" parent="AeCEf1UCao7Z_vWgHj9i-1" vertex="1">
          <mxGeometry y="518" width="360" height="26" as="geometry" />
        </mxCell>
        <mxCell id="AeCEf1UCao7Z_vWgHj9i-17" value="+ carsToString(): String" style="text;strokeColor=none;fillColor=none;align=left;verticalAlign=top;spacingLeft=4;spacingRight=4;overflow=hidden;rotatable=0;points=[[0,0.5],[1,0.5]];portConstraint=eastwest;" parent="AeCEf1UCao7Z_vWgHj9i-1" vertex="1">
          <mxGeometry y="544" width="360" height="26" as="geometry" />
        </mxCell>
        <mxCell id="AeCEf1UCao7Z_vWgHj9i-119" value="+ move(): void" style="text;strokeColor=none;fillColor=none;align=left;verticalAlign=top;spacingLeft=4;spacingRight=4;overflow=hidden;rotatable=0;points=[[0,0.5],[1,0.5]];portConstraint=eastwest;" parent="AeCEf1UCao7Z_vWgHj9i-1" vertex="1">
          <mxGeometry y="570" width="360" height="26" as="geometry" />
        </mxCell>
        <mxCell id="w_uHxVpiJhdYi6DjlOEM-59" value="+ gas(amount : double): void" style="text;strokeColor=none;fillColor=none;align=left;verticalAlign=top;spacingLeft=4;spacingRight=4;overflow=hidden;rotatable=0;points=[[0,0.5],[1,0.5]];portConstraint=eastwest;" parent="AeCEf1UCao7Z_vWgHj9i-1" vertex="1">
          <mxGeometry y="596" width="360" height="26" as="geometry" />
        </mxCell>
        <mxCell id="w_uHxVpiJhdYi6DjlOEM-60" value="+ startEngine(): void" style="text;strokeColor=none;fillColor=none;align=left;verticalAlign=top;spacingLeft=4;spacingRight=4;overflow=hidden;rotatable=0;points=[[0,0.5],[1,0.5]];portConstraint=eastwest;" parent="AeCEf1UCao7Z_vWgHj9i-1" vertex="1">
          <mxGeometry y="622" width="360" height="26" as="geometry" />
        </mxCell>
        <mxCell id="AeCEf1UCao7Z_vWgHj9i-18" value="Vehicle.Movable&#xa;&lt;&lt;interface&gt;&gt;" style="swimlane;fontStyle=1;childLayout=stackLayout;horizontal=1;startSize=40;fillColor=none;horizontalStack=0;resizeParent=1;resizeParentMax=0;resizeLast=0;collapsible=1;marginBottom=0;" parent="1" vertex="1">
          <mxGeometry x="760" y="-250" width="160" height="118" as="geometry" />
        </mxCell>
        <mxCell id="AeCEf1UCao7Z_vWgHj9i-19" value="+ move() : void" style="text;strokeColor=none;fillColor=none;align=left;verticalAlign=top;spacingLeft=4;spacingRight=4;overflow=hidden;rotatable=0;points=[[0,0.5],[1,0.5]];portConstraint=eastwest;" parent="AeCEf1UCao7Z_vWgHj9i-18" vertex="1">
          <mxGeometry y="40" width="160" height="26" as="geometry" />
        </mxCell>
        <mxCell id="AeCEf1UCao7Z_vWgHj9i-20" value="+ turnLeft() : void" style="text;strokeColor=none;fillColor=none;align=left;verticalAlign=top;spacingLeft=4;spacingRight=4;overflow=hidden;rotatable=0;points=[[0,0.5],[1,0.5]];portConstraint=eastwest;" parent="AeCEf1UCao7Z_vWgHj9i-18" vertex="1">
          <mxGeometry y="66" width="160" height="26" as="geometry" />
        </mxCell>
        <mxCell id="AeCEf1UCao7Z_vWgHj9i-21" value="+ turnRight() : void" style="text;strokeColor=none;fillColor=none;align=left;verticalAlign=top;spacingLeft=4;spacingRight=4;overflow=hidden;rotatable=0;points=[[0,0.5],[1,0.5]];portConstraint=eastwest;" parent="AeCEf1UCao7Z_vWgHj9i-18" vertex="1">
          <mxGeometry y="92" width="160" height="26" as="geometry" />
        </mxCell>
        <mxCell id="AeCEf1UCao7Z_vWgHj9i-22" value="Vehicle.Vehicle&#xa;{abstract}&#xa;" style="swimlane;fontStyle=1;align=center;verticalAlign=top;childLayout=stackLayout;horizontal=1;startSize=40;horizontalStack=0;resizeParent=1;resizeParentMax=0;resizeLast=0;collapsible=1;marginBottom=0;" parent="1" vertex="1">
          <mxGeometry x="680" y="-70" width="320" height="596" as="geometry" />
        </mxCell>
        <mxCell id="AeCEf1UCao7Z_vWgHj9i-23" value="&lt;&lt;get/set&gt;&gt; - x : double" style="text;strokeColor=none;fillColor=none;align=left;verticalAlign=top;spacingLeft=4;spacingRight=4;overflow=hidden;rotatable=0;points=[[0,0.5],[1,0.5]];portConstraint=eastwest;" parent="AeCEf1UCao7Z_vWgHj9i-22" vertex="1">
          <mxGeometry y="40" width="320" height="26" as="geometry" />
        </mxCell>
        <mxCell id="AeCEf1UCao7Z_vWgHj9i-24" value="&lt;&lt;get/set&gt;&gt; - y : double" style="text;strokeColor=none;fillColor=none;align=left;verticalAlign=top;spacingLeft=4;spacingRight=4;overflow=hidden;rotatable=0;points=[[0,0.5],[1,0.5]];portConstraint=eastwest;" parent="AeCEf1UCao7Z_vWgHj9i-22" vertex="1">
          <mxGeometry y="66" width="320" height="26" as="geometry" />
        </mxCell>
        <mxCell id="AeCEf1UCao7Z_vWgHj9i-25" value="&lt;&lt;get/set&gt;&gt; - nrDoors : int" style="text;strokeColor=none;fillColor=none;align=left;verticalAlign=top;spacingLeft=4;spacingRight=4;overflow=hidden;rotatable=0;points=[[0,0.5],[1,0.5]];portConstraint=eastwest;" parent="AeCEf1UCao7Z_vWgHj9i-22" vertex="1">
          <mxGeometry y="92" width="320" height="26" as="geometry" />
        </mxCell>
        <mxCell id="AeCEf1UCao7Z_vWgHj9i-26" value="&lt;&lt;get/set&gt;&gt; - enginePower : double" style="text;strokeColor=none;fillColor=none;align=left;verticalAlign=top;spacingLeft=4;spacingRight=4;overflow=hidden;rotatable=0;points=[[0,0.5],[1,0.5]];portConstraint=eastwest;" parent="AeCEf1UCao7Z_vWgHj9i-22" vertex="1">
          <mxGeometry y="118" width="320" height="26" as="geometry" />
        </mxCell>
        <mxCell id="AeCEf1UCao7Z_vWgHj9i-27" value="&lt;&lt;get / -set&gt;&gt; - currentSpeed : double" style="text;strokeColor=none;fillColor=none;align=left;verticalAlign=top;spacingLeft=4;spacingRight=4;overflow=hidden;rotatable=0;points=[[0,0.5],[1,0.5]];portConstraint=eastwest;" parent="AeCEf1UCao7Z_vWgHj9i-22" vertex="1">
          <mxGeometry y="144" width="320" height="26" as="geometry" />
        </mxCell>
        <mxCell id="AeCEf1UCao7Z_vWgHj9i-28" value="&lt;&lt;get/set&gt;&gt; - color : Color" style="text;strokeColor=none;fillColor=none;align=left;verticalAlign=top;spacingLeft=4;spacingRight=4;overflow=hidden;rotatable=0;points=[[0,0.5],[1,0.5]];portConstraint=eastwest;" parent="AeCEf1UCao7Z_vWgHj9i-22" vertex="1">
          <mxGeometry y="170" width="320" height="26" as="geometry" />
        </mxCell>
        <mxCell id="AeCEf1UCao7Z_vWgHj9i-29" value="&lt;&lt;get/set&gt;&gt; - modelName : String" style="text;strokeColor=none;fillColor=none;align=left;verticalAlign=top;spacingLeft=4;spacingRight=4;overflow=hidden;rotatable=0;points=[[0,0.5],[1,0.5]];portConstraint=eastwest;" parent="AeCEf1UCao7Z_vWgHj9i-22" vertex="1">
          <mxGeometry y="196" width="320" height="26" as="geometry" />
        </mxCell>
        <mxCell id="yBkD2uAlPnw_lQSOTUZA-1" value="&lt;&lt;get / -set&gt;&gt; - directionAngle : int" style="text;strokeColor=none;fillColor=none;align=left;verticalAlign=top;spacingLeft=4;spacingRight=4;overflow=hidden;rotatable=0;points=[[0,0.5],[1,0.5]];portConstraint=eastwest;" parent="AeCEf1UCao7Z_vWgHj9i-22" vertex="1">
          <mxGeometry y="222" width="320" height="26" as="geometry" />
        </mxCell>
        <mxCell id="AeCEf1UCao7Z_vWgHj9i-30" value="" style="line;strokeWidth=1;fillColor=none;align=left;verticalAlign=middle;spacingTop=-1;spacingLeft=3;spacingRight=3;rotatable=0;labelPosition=right;points=[];portConstraint=eastwest;" parent="AeCEf1UCao7Z_vWgHj9i-22" vertex="1">
          <mxGeometry y="248" width="320" height="8" as="geometry" />
        </mxCell>
        <mxCell id="AeCEf1UCao7Z_vWgHj9i-31" value="+ Vehicle.Vehicle(x : double, y : double, nrDoors : int, &#xa;       enginePower : double, currentSpeed : double,&#xa;       color : Color, modelName : String, directionAngle : int)" style="text;strokeColor=none;fillColor=none;align=left;verticalAlign=top;spacingLeft=4;spacingRight=4;overflow=hidden;rotatable=0;points=[[0,0.5],[1,0.5]];portConstraint=eastwest;" parent="AeCEf1UCao7Z_vWgHj9i-22" vertex="1">
          <mxGeometry y="256" width="320" height="54" as="geometry" />
        </mxCell>
        <mxCell id="AeCEf1UCao7Z_vWgHj9i-32" value="+ startEngine(): void" style="text;strokeColor=none;fillColor=none;align=left;verticalAlign=top;spacingLeft=4;spacingRight=4;overflow=hidden;rotatable=0;points=[[0,0.5],[1,0.5]];portConstraint=eastwest;" parent="AeCEf1UCao7Z_vWgHj9i-22" vertex="1">
          <mxGeometry y="310" width="320" height="26" as="geometry" />
        </mxCell>
        <mxCell id="AeCEf1UCao7Z_vWgHj9i-33" value="+ stopEngine(): void" style="text;strokeColor=none;fillColor=none;align=left;verticalAlign=top;spacingLeft=4;spacingRight=4;overflow=hidden;rotatable=0;points=[[0,0.5],[1,0.5]];portConstraint=eastwest;" parent="AeCEf1UCao7Z_vWgHj9i-22" vertex="1">
          <mxGeometry y="336" width="320" height="26" as="geometry" />
        </mxCell>
        <mxCell id="AeCEf1UCao7Z_vWgHj9i-34" value="+ move() : void" style="text;strokeColor=none;fillColor=none;align=left;verticalAlign=top;spacingLeft=4;spacingRight=4;overflow=hidden;rotatable=0;points=[[0,0.5],[1,0.5]];portConstraint=eastwest;" parent="AeCEf1UCao7Z_vWgHj9i-22" vertex="1">
          <mxGeometry y="362" width="320" height="26" as="geometry" />
        </mxCell>
        <mxCell id="AeCEf1UCao7Z_vWgHj9i-35" value="+ turnLeft(angle : int) : void" style="text;strokeColor=none;fillColor=none;align=left;verticalAlign=top;spacingLeft=4;spacingRight=4;overflow=hidden;rotatable=0;points=[[0,0.5],[1,0.5]];portConstraint=eastwest;" parent="AeCEf1UCao7Z_vWgHj9i-22" vertex="1">
          <mxGeometry y="388" width="320" height="26" as="geometry" />
        </mxCell>
        <mxCell id="AeCEf1UCao7Z_vWgHj9i-36" value="+ turnRight(angle : int) : void" style="text;strokeColor=none;fillColor=none;align=left;verticalAlign=top;spacingLeft=4;spacingRight=4;overflow=hidden;rotatable=0;points=[[0,0.5],[1,0.5]];portConstraint=eastwest;" parent="AeCEf1UCao7Z_vWgHj9i-22" vertex="1">
          <mxGeometry y="414" width="320" height="26" as="geometry" />
        </mxCell>
        <mxCell id="AeCEf1UCao7Z_vWgHj9i-37" value="+ toString() : String" style="text;strokeColor=none;fillColor=none;align=left;verticalAlign=top;spacingLeft=4;spacingRight=4;overflow=hidden;rotatable=0;points=[[0,0.5],[1,0.5]];portConstraint=eastwest;" parent="AeCEf1UCao7Z_vWgHj9i-22" vertex="1">
          <mxGeometry y="440" width="320" height="26" as="geometry" />
        </mxCell>
        <mxCell id="AeCEf1UCao7Z_vWgHj9i-38" value="&lt;&lt;abstract&gt;&gt; + speedFactor(): double" style="text;strokeColor=none;fillColor=none;align=left;verticalAlign=top;spacingLeft=4;spacingRight=4;overflow=hidden;rotatable=0;points=[[0,0.5],[1,0.5]];portConstraint=eastwest;" parent="AeCEf1UCao7Z_vWgHj9i-22" vertex="1">
          <mxGeometry y="466" width="320" height="26" as="geometry" />
        </mxCell>
        <mxCell id="AeCEf1UCao7Z_vWgHj9i-39" value="+ incrementSpeed(amount : double): void" style="text;strokeColor=none;fillColor=none;align=left;verticalAlign=top;spacingLeft=4;spacingRight=4;overflow=hidden;rotatable=0;points=[[0,0.5],[1,0.5]];portConstraint=eastwest;" parent="AeCEf1UCao7Z_vWgHj9i-22" vertex="1">
          <mxGeometry y="492" width="320" height="26" as="geometry" />
        </mxCell>
        <mxCell id="AeCEf1UCao7Z_vWgHj9i-40" value="- decrementSpeed(amount : double): void" style="text;strokeColor=none;fillColor=none;align=left;verticalAlign=top;spacingLeft=4;spacingRight=4;overflow=hidden;rotatable=0;points=[[0,0.5],[1,0.5]];portConstraint=eastwest;" parent="AeCEf1UCao7Z_vWgHj9i-22" vertex="1">
          <mxGeometry y="518" width="320" height="26" as="geometry" />
        </mxCell>
        <mxCell id="AeCEf1UCao7Z_vWgHj9i-41" value="+ gas(amount : double): void" style="text;strokeColor=none;fillColor=none;align=left;verticalAlign=top;spacingLeft=4;spacingRight=4;overflow=hidden;rotatable=0;points=[[0,0.5],[1,0.5]];portConstraint=eastwest;" parent="AeCEf1UCao7Z_vWgHj9i-22" vertex="1">
          <mxGeometry y="544" width="320" height="26" as="geometry" />
        </mxCell>
        <mxCell id="AeCEf1UCao7Z_vWgHj9i-42" value="+ brake(amount : double): void" style="text;strokeColor=none;fillColor=none;align=left;verticalAlign=top;spacingLeft=4;spacingRight=4;overflow=hidden;rotatable=0;points=[[0,0.5],[1,0.5]];portConstraint=eastwest;" parent="AeCEf1UCao7Z_vWgHj9i-22" vertex="1">
          <mxGeometry y="570" width="320" height="26" as="geometry" />
        </mxCell>
        <mxCell id="AeCEf1UCao7Z_vWgHj9i-43" value="" style="endArrow=block;dashed=1;endFill=0;endSize=12;html=1;entryX=0.5;entryY=1.038;entryDx=0;entryDy=0;entryPerimeter=0;" parent="1" source="AeCEf1UCao7Z_vWgHj9i-22" target="AeCEf1UCao7Z_vWgHj9i-21" edge="1">
          <mxGeometry width="160" relative="1" as="geometry">
            <mxPoint x="1020" y="290" as="sourcePoint" />
            <mxPoint x="1180" y="290" as="targetPoint" />
          </mxGeometry>
        </mxCell>
        <mxCell id="AeCEf1UCao7Z_vWgHj9i-52" value="Vehicle.Volvo240" style="swimlane;fontStyle=1;align=center;verticalAlign=top;childLayout=stackLayout;horizontal=1;startSize=26;horizontalStack=0;resizeParent=1;resizeParentMax=0;resizeLast=0;collapsible=1;marginBottom=0;" parent="1" vertex="1">
          <mxGeometry x="50" y="859.74" width="270" height="146" as="geometry" />
        </mxCell>
        <mxCell id="AeCEf1UCao7Z_vWgHj9i-53" value="&lt;&lt;final&gt;&gt; - trimFactor : double " style="text;strokeColor=none;fillColor=none;align=left;verticalAlign=top;spacingLeft=4;spacingRight=4;overflow=hidden;rotatable=0;points=[[0,0.5],[1,0.5]];portConstraint=eastwest;fontStyle=4" parent="AeCEf1UCao7Z_vWgHj9i-52" vertex="1">
          <mxGeometry y="26" width="270" height="26" as="geometry" />
        </mxCell>
        <mxCell id="AeCEf1UCao7Z_vWgHj9i-54" value="" style="line;strokeWidth=1;fillColor=none;align=left;verticalAlign=middle;spacingTop=-1;spacingLeft=3;spacingRight=3;rotatable=0;labelPosition=right;points=[];portConstraint=eastwest;" parent="AeCEf1UCao7Z_vWgHj9i-52" vertex="1">
          <mxGeometry y="52" width="270" height="8" as="geometry" />
        </mxCell>
        <mxCell id="AeCEf1UCao7Z_vWgHj9i-55" value="+ Vehicle.Volvo240(nrDoors : int, enginePower : double, &#xa;                   currentSpeed : double, color : Color, &#xa;                   modelName : String)" style="text;strokeColor=none;fillColor=none;align=left;verticalAlign=top;spacingLeft=4;spacingRight=4;overflow=hidden;rotatable=0;points=[[0,0.5],[1,0.5]];portConstraint=eastwest;" parent="AeCEf1UCao7Z_vWgHj9i-52" vertex="1">
          <mxGeometry y="60" width="270" height="60" as="geometry" />
        </mxCell>
        <mxCell id="AeCEf1UCao7Z_vWgHj9i-56" value="+ speedFactor(): double" style="text;strokeColor=none;fillColor=none;align=left;verticalAlign=top;spacingLeft=4;spacingRight=4;overflow=hidden;rotatable=0;points=[[0,0.5],[1,0.5]];portConstraint=eastwest;" parent="AeCEf1UCao7Z_vWgHj9i-52" vertex="1">
          <mxGeometry y="120" width="270" height="26" as="geometry" />
        </mxCell>
        <mxCell id="AeCEf1UCao7Z_vWgHj9i-57" value="Extends" style="endArrow=block;endSize=16;endFill=0;html=1;exitX=0.5;exitY=0;exitDx=0;exitDy=0;entryX=0.5;entryY=1;entryDx=0;entryDy=0;" parent="1" source="AeCEf1UCao7Z_vWgHj9i-52" target="AeCEf1UCao7Z_vWgHj9i-60" edge="1">
          <mxGeometry width="160" relative="1" as="geometry">
            <mxPoint x="540" y="949.74" as="sourcePoint" />
            <mxPoint x="340.31999999999994" y="771.5960000000002" as="targetPoint" />
          </mxGeometry>
        </mxCell>
        <mxCell id="AeCEf1UCao7Z_vWgHj9i-58" value="Extends" style="endArrow=block;endSize=16;endFill=0;html=1;exitX=0.5;exitY=0;exitDx=0;exitDy=0;entryX=0.5;entryY=1;entryDx=0;entryDy=0;" parent="1" source="w_uHxVpiJhdYi6DjlOEM-18" target="AeCEf1UCao7Z_vWgHj9i-60" edge="1">
          <mxGeometry width="160" relative="1" as="geometry">
            <mxPoint x="320" y="979.74" as="sourcePoint" />
            <mxPoint x="340.96000000000004" y="772.8199999999999" as="targetPoint" />
          </mxGeometry>
        </mxCell>
        <mxCell id="AeCEf1UCao7Z_vWgHj9i-59" value="Extends" style="endArrow=block;endSize=16;endFill=0;html=1;exitX=0.5;exitY=0;exitDx=0;exitDy=0;entryX=0.5;entryY=1;entryDx=0;entryDy=0;" parent="1" source="AeCEf1UCao7Z_vWgHj9i-92" target="AeCEf1UCao7Z_vWgHj9i-61" edge="1">
          <mxGeometry width="160" relative="1" as="geometry">
            <mxPoint x="400" y="930" as="sourcePoint" />
            <mxPoint x="910.9599999999998" y="717.172" as="targetPoint" />
          </mxGeometry>
        </mxCell>
        <mxCell id="AeCEf1UCao7Z_vWgHj9i-60" value="Vehicle.Vehicle.Car&#xa;{abstract}" style="swimlane;fontStyle=1;align=center;verticalAlign=top;childLayout=stackLayout;horizontal=1;startSize=40;horizontalStack=0;resizeParent=1;resizeParentMax=0;resizeLast=0;collapsible=1;marginBottom=0;" parent="1" vertex="1">
          <mxGeometry x="190" y="660.74" width="340" height="94" as="geometry" />
        </mxCell>
        <mxCell id="w_uHxVpiJhdYi6DjlOEM-1" value="+ Vehicle.Vehicle.Car(x : double, y : double, nrDoors : int, &#xa;       enginePower : double, currentSpeed : double,&#xa;       color : Color, modelName : String, directionAngle : int)" style="text;strokeColor=none;fillColor=none;align=left;verticalAlign=top;spacingLeft=4;spacingRight=4;overflow=hidden;rotatable=0;points=[[0,0.5],[1,0.5]];portConstraint=eastwest;" parent="AeCEf1UCao7Z_vWgHj9i-60" vertex="1">
          <mxGeometry y="40" width="340" height="54" as="geometry" />
        </mxCell>
        <mxCell id="AeCEf1UCao7Z_vWgHj9i-61" value="Vehicle.Vehicle.Truck&#xa;{abstract}" style="swimlane;fontStyle=1;align=center;verticalAlign=top;childLayout=stackLayout;horizontal=1;startSize=40;horizontalStack=0;resizeParent=1;resizeParentMax=0;resizeLast=0;collapsible=1;marginBottom=0;" parent="1" vertex="1">
          <mxGeometry x="1260" y="640" width="320" height="128" as="geometry" />
        </mxCell>
        <mxCell id="w_uHxVpiJhdYi6DjlOEM-28" value="- ramp : Vehicle.Ramp&#xa;" style="text;strokeColor=none;fillColor=none;align=left;verticalAlign=top;spacingLeft=4;spacingRight=4;overflow=hidden;rotatable=0;points=[[0,0.5],[1,0.5]];portConstraint=eastwest;fontStyle=0" parent="AeCEf1UCao7Z_vWgHj9i-61" vertex="1">
          <mxGeometry y="40" width="320" height="26" as="geometry" />
        </mxCell>
        <mxCell id="w_uHxVpiJhdYi6DjlOEM-29" value="" style="line;strokeWidth=1;fillColor=none;align=left;verticalAlign=middle;spacingTop=-1;spacingLeft=3;spacingRight=3;rotatable=0;labelPosition=right;points=[];portConstraint=eastwest;" parent="AeCEf1UCao7Z_vWgHj9i-61" vertex="1">
          <mxGeometry y="66" width="320" height="8" as="geometry" />
        </mxCell>
        <mxCell id="w_uHxVpiJhdYi6DjlOEM-27" value="+ Vehicle.Vehicle.Truck(x : double, y : double, nrDoors : int, &#xa;       enginePower : double, currentSpeed : double,&#xa;       color : Color, modelName : String, directionAngle : int)" style="text;strokeColor=none;fillColor=none;align=left;verticalAlign=top;spacingLeft=4;spacingRight=4;overflow=hidden;rotatable=0;points=[[0,0.5],[1,0.5]];portConstraint=eastwest;" parent="AeCEf1UCao7Z_vWgHj9i-61" vertex="1">
          <mxGeometry y="74" width="320" height="54" as="geometry" />
        </mxCell>
        <mxCell id="AeCEf1UCao7Z_vWgHj9i-62" value="Extends" style="endArrow=block;endSize=16;endFill=0;html=1;exitX=0.5;exitY=0;exitDx=0;exitDy=0;entryX=0.5;entryY=1.096;entryDx=0;entryDy=0;entryPerimeter=0;" parent="1" source="AeCEf1UCao7Z_vWgHj9i-60" target="AeCEf1UCao7Z_vWgHj9i-42" edge="1">
          <mxGeometry width="160" relative="1" as="geometry">
            <mxPoint x="590" y="719.74" as="sourcePoint" />
            <mxPoint x="610" y="620" as="targetPoint" />
          </mxGeometry>
        </mxCell>
        <mxCell id="AeCEf1UCao7Z_vWgHj9i-63" value="Extends" style="endArrow=block;endSize=16;endFill=0;html=1;exitX=0.5;exitY=0;exitDx=0;exitDy=0;" parent="1" source="AeCEf1UCao7Z_vWgHj9i-61" edge="1">
          <mxGeometry width="160" relative="1" as="geometry">
            <mxPoint x="490" y="620" as="sourcePoint" />
            <mxPoint x="850" y="530" as="targetPoint" />
          </mxGeometry>
        </mxCell>
        <mxCell id="AeCEf1UCao7Z_vWgHj9i-92" value="Vehicle.Scania" style="swimlane;fontStyle=1;align=center;verticalAlign=top;childLayout=stackLayout;horizontal=1;startSize=28;horizontalStack=0;resizeParent=1;resizeParentMax=0;resizeLast=0;collapsible=1;marginBottom=0;" parent="1" vertex="1">
          <mxGeometry x="1040" y="932" width="280" height="452" as="geometry" />
        </mxCell>
        <mxCell id="w_uHxVpiJhdYi6DjlOEM-43" value="&lt;&lt;final&gt;&gt; - ramp : Vehicle.Ramp&#xa;" style="text;strokeColor=none;fillColor=none;align=left;verticalAlign=top;spacingLeft=4;spacingRight=4;overflow=hidden;rotatable=0;points=[[0,0.5],[1,0.5]];portConstraint=eastwest;fontStyle=0" parent="AeCEf1UCao7Z_vWgHj9i-92" vertex="1">
          <mxGeometry y="28" width="280" height="26" as="geometry" />
        </mxCell>
        <mxCell id="AeCEf1UCao7Z_vWgHj9i-93" value="&lt;&lt;get/set&gt;&gt; - platformAngle : int&#xa;" style="text;strokeColor=none;fillColor=none;align=left;verticalAlign=top;spacingLeft=4;spacingRight=4;overflow=hidden;rotatable=0;points=[[0,0.5],[1,0.5]];portConstraint=eastwest;fontStyle=0" parent="AeCEf1UCao7Z_vWgHj9i-92" vertex="1">
          <mxGeometry y="54" width="280" height="26" as="geometry" />
        </mxCell>
        <mxCell id="AeCEf1UCao7Z_vWgHj9i-94" value="" style="line;strokeWidth=1;fillColor=none;align=left;verticalAlign=middle;spacingTop=-1;spacingLeft=3;spacingRight=3;rotatable=0;labelPosition=right;points=[];portConstraint=eastwest;" parent="AeCEf1UCao7Z_vWgHj9i-92" vertex="1">
          <mxGeometry y="80" width="280" height="8" as="geometry" />
        </mxCell>
        <mxCell id="w_uHxVpiJhdYi6DjlOEM-48" value="+ Vehicle.Scania(nrDoors : int, enginePower : double, &#xa;                   currentSpeed : double, color : Color, &#xa;                   modelName : String)" style="text;strokeColor=none;fillColor=none;align=left;verticalAlign=top;spacingLeft=4;spacingRight=4;overflow=hidden;rotatable=0;points=[[0,0.5],[1,0.5]];portConstraint=eastwest;" parent="AeCEf1UCao7Z_vWgHj9i-92" vertex="1">
          <mxGeometry y="88" width="280" height="52" as="geometry" />
        </mxCell>
        <mxCell id="w_uHxVpiJhdYi6DjlOEM-53" value="+ raiseRamp(): void" style="text;strokeColor=none;fillColor=none;align=left;verticalAlign=top;spacingLeft=4;spacingRight=4;overflow=hidden;rotatable=0;points=[[0,0.5],[1,0.5]];portConstraint=eastwest;" parent="AeCEf1UCao7Z_vWgHj9i-92" vertex="1">
          <mxGeometry y="140" width="280" height="26" as="geometry" />
        </mxCell>
        <mxCell id="w_uHxVpiJhdYi6DjlOEM-54" value="+ lowerRamp(): void" style="text;strokeColor=none;fillColor=none;align=left;verticalAlign=top;spacingLeft=4;spacingRight=4;overflow=hidden;rotatable=0;points=[[0,0.5],[1,0.5]];portConstraint=eastwest;" parent="AeCEf1UCao7Z_vWgHj9i-92" vertex="1">
          <mxGeometry y="166" width="280" height="26" as="geometry" />
        </mxCell>
        <mxCell id="w_uHxVpiJhdYi6DjlOEM-55" value="+ isRampRaised(): boolean " style="text;strokeColor=none;fillColor=none;align=left;verticalAlign=top;spacingLeft=4;spacingRight=4;overflow=hidden;rotatable=0;points=[[0,0.5],[1,0.5]];portConstraint=eastwest;" parent="AeCEf1UCao7Z_vWgHj9i-92" vertex="1">
          <mxGeometry y="192" width="280" height="26" as="geometry" />
        </mxCell>
        <mxCell id="AeCEf1UCao7Z_vWgHj9i-103" value="+ raisePlatformAngle(): void" style="text;strokeColor=none;fillColor=none;align=left;verticalAlign=top;spacingLeft=4;spacingRight=4;overflow=hidden;rotatable=0;points=[[0,0.5],[1,0.5]];portConstraint=eastwest;" parent="AeCEf1UCao7Z_vWgHj9i-92" vertex="1">
          <mxGeometry y="218" width="280" height="26" as="geometry" />
        </mxCell>
        <mxCell id="AeCEf1UCao7Z_vWgHj9i-105" value="+ lowerPlatformAngle(): void" style="text;strokeColor=none;fillColor=none;align=left;verticalAlign=top;spacingLeft=4;spacingRight=4;overflow=hidden;rotatable=0;points=[[0,0.5],[1,0.5]];portConstraint=eastwest;" parent="AeCEf1UCao7Z_vWgHj9i-92" vertex="1">
          <mxGeometry y="244" width="280" height="26" as="geometry" />
        </mxCell>
        <mxCell id="w_uHxVpiJhdYi6DjlOEM-56" value="+ isStationary(): boolean " style="text;strokeColor=none;fillColor=none;align=left;verticalAlign=top;spacingLeft=4;spacingRight=4;overflow=hidden;rotatable=0;points=[[0,0.5],[1,0.5]];portConstraint=eastwest;" parent="AeCEf1UCao7Z_vWgHj9i-92" vertex="1">
          <mxGeometry y="270" width="280" height="26" as="geometry" />
        </mxCell>
        <mxCell id="w_uHxVpiJhdYi6DjlOEM-57" value="+ raiseOrLowerRamp(): void" style="text;strokeColor=none;fillColor=none;align=left;verticalAlign=top;spacingLeft=4;spacingRight=4;overflow=hidden;rotatable=0;points=[[0,0.5],[1,0.5]];portConstraint=eastwest;" parent="AeCEf1UCao7Z_vWgHj9i-92" vertex="1">
          <mxGeometry y="296" width="280" height="26" as="geometry" />
        </mxCell>
        <mxCell id="AeCEf1UCao7Z_vWgHj9i-106" value="+ canRaisePlatformAngle(): boolean" style="text;strokeColor=none;fillColor=none;align=left;verticalAlign=top;spacingLeft=4;spacingRight=4;overflow=hidden;rotatable=0;points=[[0,0.5],[1,0.5]];portConstraint=eastwest;" parent="AeCEf1UCao7Z_vWgHj9i-92" vertex="1">
          <mxGeometry y="322" width="280" height="26" as="geometry" />
        </mxCell>
        <mxCell id="AeCEf1UCao7Z_vWgHj9i-107" value="+ isPlatformRaised(): boolean" style="text;strokeColor=none;fillColor=none;align=left;verticalAlign=top;spacingLeft=4;spacingRight=4;overflow=hidden;rotatable=0;points=[[0,0.5],[1,0.5]];portConstraint=eastwest;" parent="AeCEf1UCao7Z_vWgHj9i-92" vertex="1">
          <mxGeometry y="348" width="280" height="26" as="geometry" />
        </mxCell>
        <mxCell id="AeCEf1UCao7Z_vWgHj9i-108" value="+ speedFactor(): double" style="text;strokeColor=none;fillColor=none;align=left;verticalAlign=top;spacingLeft=4;spacingRight=4;overflow=hidden;rotatable=0;points=[[0,0.5],[1,0.5]];portConstraint=eastwest;" parent="AeCEf1UCao7Z_vWgHj9i-92" vertex="1">
          <mxGeometry y="374" width="280" height="26" as="geometry" />
        </mxCell>
        <mxCell id="AeCEf1UCao7Z_vWgHj9i-112" value="+ gas(amount : double): void" style="text;strokeColor=none;fillColor=none;align=left;verticalAlign=top;spacingLeft=4;spacingRight=4;overflow=hidden;rotatable=0;points=[[0,0.5],[1,0.5]];portConstraint=eastwest;" parent="AeCEf1UCao7Z_vWgHj9i-92" vertex="1">
          <mxGeometry y="400" width="280" height="26" as="geometry" />
        </mxCell>
        <mxCell id="AeCEf1UCao7Z_vWgHj9i-111" value="+ startEngine(): void" style="text;strokeColor=none;fillColor=none;align=left;verticalAlign=top;spacingLeft=4;spacingRight=4;overflow=hidden;rotatable=0;points=[[0,0.5],[1,0.5]];portConstraint=eastwest;" parent="AeCEf1UCao7Z_vWgHj9i-92" vertex="1">
          <mxGeometry y="426" width="280" height="26" as="geometry" />
        </mxCell>
        <mxCell id="AeCEf1UCao7Z_vWgHj9i-65" value="Vehicle.CarRepairShop&#xa;&lt;C extends Vehicle.Vehicle.Car&gt;" style="swimlane;fontStyle=1;align=center;verticalAlign=top;childLayout=stackLayout;horizontal=1;startSize=40;horizontalStack=0;resizeParent=1;resizeParentMax=0;resizeLast=0;collapsible=1;marginBottom=0;strokeColor=#000000;fillColor=none;shadow=1;" parent="1" vertex="1">
          <mxGeometry x="2200" y="932" width="240" height="236" as="geometry" />
        </mxCell>
        <mxCell id="AeCEf1UCao7Z_vWgHj9i-66" value="- cars: List&lt;C&gt;" style="text;strokeColor=none;fillColor=none;align=left;verticalAlign=top;spacingLeft=4;spacingRight=4;overflow=hidden;rotatable=0;points=[[0,0.5],[1,0.5]];portConstraint=eastwest;shadow=1;" parent="AeCEf1UCao7Z_vWgHj9i-65" vertex="1">
          <mxGeometry y="40" width="240" height="26" as="geometry" />
        </mxCell>
        <mxCell id="AeCEf1UCao7Z_vWgHj9i-67" value="- maxSize: int" style="text;strokeColor=none;fillColor=none;align=left;verticalAlign=top;spacingLeft=4;spacingRight=4;overflow=hidden;rotatable=0;points=[[0,0.5],[1,0.5]];portConstraint=eastwest;shadow=1;" parent="AeCEf1UCao7Z_vWgHj9i-65" vertex="1">
          <mxGeometry y="66" width="240" height="26" as="geometry" />
        </mxCell>
        <mxCell id="AeCEf1UCao7Z_vWgHj9i-68" value="" style="line;strokeWidth=1;fillColor=none;align=left;verticalAlign=middle;spacingTop=-1;spacingLeft=3;spacingRight=3;rotatable=0;labelPosition=right;points=[];portConstraint=eastwest;shadow=1;" parent="AeCEf1UCao7Z_vWgHj9i-65" vertex="1">
          <mxGeometry y="92" width="240" height="8" as="geometry" />
        </mxCell>
        <mxCell id="w_uHxVpiJhdYi6DjlOEM-61" value="+ Vehicle.CarRepairShop(maxSize : int)" style="text;strokeColor=none;fillColor=none;align=left;verticalAlign=top;spacingLeft=4;spacingRight=4;overflow=hidden;rotatable=0;points=[[0,0.5],[1,0.5]];portConstraint=eastwest;" parent="AeCEf1UCao7Z_vWgHj9i-65" vertex="1">
          <mxGeometry y="100" width="240" height="24" as="geometry" />
        </mxCell>
        <mxCell id="AeCEf1UCao7Z_vWgHj9i-69" value="+ loadCar(item : C): void " style="text;strokeColor=none;fillColor=none;align=left;verticalAlign=top;spacingLeft=4;spacingRight=4;overflow=hidden;rotatable=0;points=[[0,0.5],[1,0.5]];portConstraint=eastwest;shadow=1;" parent="AeCEf1UCao7Z_vWgHj9i-65" vertex="1">
          <mxGeometry y="124" width="240" height="26" as="geometry" />
        </mxCell>
        <mxCell id="AeCEf1UCao7Z_vWgHj9i-70" value="&lt;span style=&quot;color: rgb(0 , 0 , 0) ; font-family: &amp;#34;helvetica&amp;#34; ; font-size: 12px ; font-style: normal ; font-weight: 400 ; letter-spacing: normal ; text-align: left ; text-indent: 0px ; text-transform: none ; word-spacing: 0px ; background-color: rgb(248 , 249 , 250) ; display: inline ; float: none&quot;&gt;&amp;nbsp;+ removeCar&lt;span style=&quot;font-family: &amp;#34;helvetica&amp;#34;&quot;&gt;(item : C):&lt;/span&gt;&amp;nbsp;void&amp;nbsp;&lt;/span&gt;" style="text;whiteSpace=wrap;html=1;fillColor=none;shadow=1;" parent="AeCEf1UCao7Z_vWgHj9i-65" vertex="1">
          <mxGeometry y="150" width="240" height="30" as="geometry" />
        </mxCell>
        <mxCell id="AeCEf1UCao7Z_vWgHj9i-102" value="+ getCars(): List&lt;C&gt;" style="text;strokeColor=none;fillColor=none;align=left;verticalAlign=top;spacingLeft=4;spacingRight=4;overflow=hidden;rotatable=0;points=[[0,0.5],[1,0.5]];portConstraint=eastwest;shadow=1;" parent="AeCEf1UCao7Z_vWgHj9i-65" vertex="1">
          <mxGeometry y="180" width="240" height="26" as="geometry" />
        </mxCell>
        <mxCell id="AeCEf1UCao7Z_vWgHj9i-72" value="&lt;span style=&quot;color: rgb(0 , 0 , 0) ; font-family: &amp;#34;helvetica&amp;#34; ; font-size: 12px ; font-style: normal ; font-weight: 400 ; letter-spacing: normal ; text-align: left ; text-indent: 0px ; text-transform: none ; word-spacing: 0px ; background-color: rgb(248 , 249 , 250) ; display: inline ; float: none&quot;&gt;&amp;nbsp;public static void main(String[] args)&lt;/span&gt;" style="text;whiteSpace=wrap;html=1;fillColor=none;shadow=1;" parent="AeCEf1UCao7Z_vWgHj9i-65" vertex="1">
          <mxGeometry y="206" width="240" height="30" as="geometry" />
        </mxCell>
        <mxCell id="fS1m_hfCymx0pJezLY5b-1" value="Extends" style="endArrow=block;endSize=16;endFill=0;html=1;exitX=0.5;exitY=0;exitDx=0;exitDy=0;entryX=0.5;entryY=1;entryDx=0;entryDy=0;" parent="1" source="AeCEf1UCao7Z_vWgHj9i-1" target="AeCEf1UCao7Z_vWgHj9i-61" edge="1">
          <mxGeometry width="160" relative="1" as="geometry">
            <mxPoint x="1270" y="718.5" as="sourcePoint" />
            <mxPoint x="1270" y="609.5" as="targetPoint" />
          </mxGeometry>
        </mxCell>
        <mxCell id="w_uHxVpiJhdYi6DjlOEM-3" value="Vehicle.Turbo" style="swimlane;fontStyle=1;align=center;verticalAlign=top;childLayout=stackLayout;horizontal=1;startSize=26;horizontalStack=0;resizeParent=1;resizeParentMax=0;resizeLast=0;collapsible=1;marginBottom=0;" parent="1" vertex="1">
          <mxGeometry x="767" y="859.74" width="160" height="138" as="geometry" />
        </mxCell>
        <mxCell id="w_uHxVpiJhdYi6DjlOEM-4" value="- turboOn : boolean" style="text;strokeColor=none;fillColor=none;align=left;verticalAlign=top;spacingLeft=4;spacingRight=4;overflow=hidden;rotatable=0;points=[[0,0.5],[1,0.5]];portConstraint=eastwest;fontStyle=0" parent="w_uHxVpiJhdYi6DjlOEM-3" vertex="1">
          <mxGeometry y="26" width="160" height="26" as="geometry" />
        </mxCell>
        <mxCell id="w_uHxVpiJhdYi6DjlOEM-5" value="" style="line;strokeWidth=1;fillColor=none;align=left;verticalAlign=middle;spacingTop=-1;spacingLeft=3;spacingRight=3;rotatable=0;labelPosition=right;points=[];portConstraint=eastwest;" parent="w_uHxVpiJhdYi6DjlOEM-3" vertex="1">
          <mxGeometry y="52" width="160" height="8" as="geometry" />
        </mxCell>
        <mxCell id="w_uHxVpiJhdYi6DjlOEM-7" value="+ setTurboOn(): void" style="text;strokeColor=none;fillColor=none;align=left;verticalAlign=top;spacingLeft=4;spacingRight=4;overflow=hidden;rotatable=0;points=[[0,0.5],[1,0.5]];portConstraint=eastwest;" parent="w_uHxVpiJhdYi6DjlOEM-3" vertex="1">
          <mxGeometry y="60" width="160" height="26" as="geometry" />
        </mxCell>
        <mxCell id="w_uHxVpiJhdYi6DjlOEM-8" value="+ setTurboOff(): void" style="text;strokeColor=none;fillColor=none;align=left;verticalAlign=top;spacingLeft=4;spacingRight=4;overflow=hidden;rotatable=0;points=[[0,0.5],[1,0.5]];portConstraint=eastwest;" parent="w_uHxVpiJhdYi6DjlOEM-3" vertex="1">
          <mxGeometry y="86" width="160" height="26" as="geometry" />
        </mxCell>
        <mxCell id="w_uHxVpiJhdYi6DjlOEM-9" value="+ isTurboOn(): boolean" style="text;strokeColor=none;fillColor=none;align=left;verticalAlign=top;spacingLeft=4;spacingRight=4;overflow=hidden;rotatable=0;points=[[0,0.5],[1,0.5]];portConstraint=eastwest;" parent="w_uHxVpiJhdYi6DjlOEM-3" vertex="1">
          <mxGeometry y="112" width="160" height="26" as="geometry" />
        </mxCell>
        <mxCell id="w_uHxVpiJhdYi6DjlOEM-17" value="1" style="endArrow=open;html=1;endSize=12;startArrow=diamondThin;startSize=14;startFill=1;edgeStyle=orthogonalEdgeStyle;align=left;verticalAlign=bottom;entryX=0;entryY=0.5;entryDx=0;entryDy=0;" parent="1" source="w_uHxVpiJhdYi6DjlOEM-19" target="w_uHxVpiJhdYi6DjlOEM-4" edge="1">
          <mxGeometry x="-1" y="3" relative="1" as="geometry">
            <mxPoint x="630" y="839.74" as="sourcePoint" />
            <mxPoint x="600" y="898.74" as="targetPoint" />
          </mxGeometry>
        </mxCell>
        <mxCell id="w_uHxVpiJhdYi6DjlOEM-18" value="Vehicle.Saab95" style="swimlane;fontStyle=1;align=center;verticalAlign=top;childLayout=stackLayout;horizontal=1;startSize=26;horizontalStack=0;resizeParent=1;resizeParentMax=0;resizeLast=0;collapsible=1;marginBottom=0;" parent="1" vertex="1">
          <mxGeometry x="400" y="859.74" width="270" height="224" as="geometry" />
        </mxCell>
        <mxCell id="w_uHxVpiJhdYi6DjlOEM-19" value="- turbo : Vehicle.Turbo" style="text;strokeColor=none;fillColor=none;align=left;verticalAlign=top;spacingLeft=4;spacingRight=4;overflow=hidden;rotatable=0;points=[[0,0.5],[1,0.5]];portConstraint=eastwest;fontStyle=0" parent="w_uHxVpiJhdYi6DjlOEM-18" vertex="1">
          <mxGeometry y="26" width="270" height="26" as="geometry" />
        </mxCell>
        <mxCell id="w_uHxVpiJhdYi6DjlOEM-20" value="" style="line;strokeWidth=1;fillColor=none;align=left;verticalAlign=middle;spacingTop=-1;spacingLeft=3;spacingRight=3;rotatable=0;labelPosition=right;points=[];portConstraint=eastwest;" parent="w_uHxVpiJhdYi6DjlOEM-18" vertex="1">
          <mxGeometry y="52" width="270" height="8" as="geometry" />
        </mxCell>
        <mxCell id="w_uHxVpiJhdYi6DjlOEM-26" value="+ Vehicle.Saab95(nrDoors : int, enginePower : double, &#xa;                   currentSpeed : double, color : Color, &#xa;                   modelName : String)" style="text;strokeColor=none;fillColor=none;align=left;verticalAlign=top;spacingLeft=4;spacingRight=4;overflow=hidden;rotatable=0;points=[[0,0.5],[1,0.5]];portConstraint=eastwest;" parent="w_uHxVpiJhdYi6DjlOEM-18" vertex="1">
          <mxGeometry y="60" width="270" height="60" as="geometry" />
        </mxCell>
        <mxCell id="w_uHxVpiJhdYi6DjlOEM-21" value="+ setTurboOn(): void" style="text;strokeColor=none;fillColor=none;align=left;verticalAlign=top;spacingLeft=4;spacingRight=4;overflow=hidden;rotatable=0;points=[[0,0.5],[1,0.5]];portConstraint=eastwest;" parent="w_uHxVpiJhdYi6DjlOEM-18" vertex="1">
          <mxGeometry y="120" width="270" height="26" as="geometry" />
        </mxCell>
        <mxCell id="w_uHxVpiJhdYi6DjlOEM-22" value="+ setTurboOff(): void" style="text;strokeColor=none;fillColor=none;align=left;verticalAlign=top;spacingLeft=4;spacingRight=4;overflow=hidden;rotatable=0;points=[[0,0.5],[1,0.5]];portConstraint=eastwest;" parent="w_uHxVpiJhdYi6DjlOEM-18" vertex="1">
          <mxGeometry y="146" width="270" height="26" as="geometry" />
        </mxCell>
        <mxCell id="w_uHxVpiJhdYi6DjlOEM-23" value="+ isTurboOn(): boolean" style="text;strokeColor=none;fillColor=none;align=left;verticalAlign=top;spacingLeft=4;spacingRight=4;overflow=hidden;rotatable=0;points=[[0,0.5],[1,0.5]];portConstraint=eastwest;" parent="w_uHxVpiJhdYi6DjlOEM-18" vertex="1">
          <mxGeometry y="172" width="270" height="26" as="geometry" />
        </mxCell>
        <mxCell id="AeCEf1UCao7Z_vWgHj9i-51" value="+ speedFactor(): double" style="text;strokeColor=none;fillColor=none;align=left;verticalAlign=top;spacingLeft=4;spacingRight=4;overflow=hidden;rotatable=0;points=[[0,0.5],[1,0.5]];portConstraint=eastwest;" parent="w_uHxVpiJhdYi6DjlOEM-18" vertex="1">
          <mxGeometry y="198" width="270" height="26" as="geometry" />
        </mxCell>
        <mxCell id="w_uHxVpiJhdYi6DjlOEM-30" value="Vehicle.Ramp" style="swimlane;fontStyle=1;align=center;verticalAlign=top;childLayout=stackLayout;horizontal=1;startSize=28;horizontalStack=0;resizeParent=1;resizeParentMax=0;resizeLast=0;collapsible=1;marginBottom=0;" parent="1" vertex="1">
          <mxGeometry x="1440" y="932" width="160" height="140" as="geometry" />
        </mxCell>
        <mxCell id="w_uHxVpiJhdYi6DjlOEM-31" value="- rampUp : boolean" style="text;strokeColor=none;fillColor=none;align=left;verticalAlign=top;spacingLeft=4;spacingRight=4;overflow=hidden;rotatable=0;points=[[0,0.5],[1,0.5]];portConstraint=eastwest;fontStyle=0" parent="w_uHxVpiJhdYi6DjlOEM-30" vertex="1">
          <mxGeometry y="28" width="160" height="26" as="geometry" />
        </mxCell>
        <mxCell id="w_uHxVpiJhdYi6DjlOEM-32" value="" style="line;strokeWidth=1;fillColor=none;align=left;verticalAlign=middle;spacingTop=-1;spacingLeft=3;spacingRight=3;rotatable=0;labelPosition=right;points=[];portConstraint=eastwest;" parent="w_uHxVpiJhdYi6DjlOEM-30" vertex="1">
          <mxGeometry y="54" width="160" height="8" as="geometry" />
        </mxCell>
        <mxCell id="w_uHxVpiJhdYi6DjlOEM-34" value="+ raiseRamp(): void" style="text;strokeColor=none;fillColor=none;align=left;verticalAlign=top;spacingLeft=4;spacingRight=4;overflow=hidden;rotatable=0;points=[[0,0.5],[1,0.5]];portConstraint=eastwest;" parent="w_uHxVpiJhdYi6DjlOEM-30" vertex="1">
          <mxGeometry y="62" width="160" height="26" as="geometry" />
        </mxCell>
        <mxCell id="w_uHxVpiJhdYi6DjlOEM-35" value="+ lowerRamp(): void" style="text;strokeColor=none;fillColor=none;align=left;verticalAlign=top;spacingLeft=4;spacingRight=4;overflow=hidden;rotatable=0;points=[[0,0.5],[1,0.5]];portConstraint=eastwest;" parent="w_uHxVpiJhdYi6DjlOEM-30" vertex="1">
          <mxGeometry y="88" width="160" height="26" as="geometry" />
        </mxCell>
        <mxCell id="w_uHxVpiJhdYi6DjlOEM-33" value="+ isRampRaised(): boolean " style="text;strokeColor=none;fillColor=none;align=left;verticalAlign=top;spacingLeft=4;spacingRight=4;overflow=hidden;rotatable=0;points=[[0,0.5],[1,0.5]];portConstraint=eastwest;" parent="w_uHxVpiJhdYi6DjlOEM-30" vertex="1">
          <mxGeometry y="114" width="160" height="26" as="geometry" />
        </mxCell>
        <mxCell id="w_uHxVpiJhdYi6DjlOEM-45" value="1" style="endArrow=open;html=1;endSize=12;startArrow=diamondThin;startSize=14;startFill=1;edgeStyle=orthogonalEdgeStyle;align=left;verticalAlign=bottom;exitX=1;exitY=0.5;exitDx=0;exitDy=0;" parent="1" source="w_uHxVpiJhdYi6DjlOEM-43" target="w_uHxVpiJhdYi6DjlOEM-31" edge="1">
          <mxGeometry x="-0.8333" relative="1" as="geometry">
            <mxPoint x="1190" y="1050" as="sourcePoint" />
            <mxPoint x="1350" y="1050" as="targetPoint" />
            <mxPoint as="offset" />
          </mxGeometry>
        </mxCell>
        <mxCell id="w_uHxVpiJhdYi6DjlOEM-47" value="1" style="endArrow=open;html=1;endSize=12;startArrow=diamondThin;startSize=14;startFill=1;edgeStyle=orthogonalEdgeStyle;align=left;verticalAlign=bottom;exitX=0;exitY=0.5;exitDx=0;exitDy=0;entryX=1;entryY=0.5;entryDx=0;entryDy=0;" parent="1" source="AeCEf1UCao7Z_vWgHj9i-3" target="w_uHxVpiJhdYi6DjlOEM-31" edge="1">
          <mxGeometry x="-0.6667" relative="1" as="geometry">
            <mxPoint x="1520" y="1050" as="sourcePoint" />
            <mxPoint x="1680" y="1050" as="targetPoint" />
            <mxPoint as="offset" />
          </mxGeometry>
        </mxCell>
        <mxCell id="Z_tI0dn7aJH7XG_BfM5y-2" value="notInUse.CarView" style="swimlane;fontStyle=1;align=center;verticalAlign=top;childLayout=stackLayout;horizontal=1;startSize=26;horizontalStack=0;resizeParent=1;resizeParentMax=0;resizeLast=0;collapsible=1;marginBottom=0;" parent="1" vertex="1">
          <mxGeometry x="2900" y="881" width="200" height="546" as="geometry" />
        </mxCell>
        <mxCell id="Z_tI0dn7aJH7XG_BfM5y-3" value="&lt;&lt;final&gt;&gt; - X : int" style="text;strokeColor=none;fillColor=none;align=left;verticalAlign=top;spacingLeft=4;spacingRight=4;overflow=hidden;rotatable=0;points=[[0,0.5],[1,0.5]];portConstraint=eastwest;fontStyle=4" parent="Z_tI0dn7aJH7XG_BfM5y-2" vertex="1">
          <mxGeometry y="26" width="200" height="26" as="geometry" />
        </mxCell>
        <mxCell id="Z_tI0dn7aJH7XG_BfM5y-13" value="&lt;&lt;final&gt;&gt; - Y : int" style="text;strokeColor=none;fillColor=none;align=left;verticalAlign=top;spacingLeft=4;spacingRight=4;overflow=hidden;rotatable=0;points=[[0,0.5],[1,0.5]];portConstraint=eastwest;fontStyle=4" parent="Z_tI0dn7aJH7XG_BfM5y-2" vertex="1">
          <mxGeometry y="52" width="200" height="26" as="geometry" />
        </mxCell>
        <mxCell id="Z_tI0dn7aJH7XG_BfM5y-15" value="* carC : notInUse.CarController" style="text;strokeColor=none;fillColor=none;align=left;verticalAlign=top;spacingLeft=4;spacingRight=4;overflow=hidden;rotatable=0;points=[[0,0.5],[1,0.5]];portConstraint=eastwest;fontStyle=0" parent="Z_tI0dn7aJH7XG_BfM5y-2" vertex="1">
          <mxGeometry y="78" width="200" height="26" as="geometry" />
        </mxCell>
        <mxCell id="Z_tI0dn7aJH7XG_BfM5y-16" value="* drawPanel : notInUse.DrawPanel" style="text;strokeColor=none;fillColor=none;align=left;verticalAlign=top;spacingLeft=4;spacingRight=4;overflow=hidden;rotatable=0;points=[[0,0.5],[1,0.5]];portConstraint=eastwest;" parent="Z_tI0dn7aJH7XG_BfM5y-2" vertex="1">
          <mxGeometry y="104" width="200" height="26" as="geometry" />
        </mxCell>
        <mxCell id="Z_tI0dn7aJH7XG_BfM5y-21" value="* controlPanel : JPanel" style="text;strokeColor=none;fillColor=none;align=left;verticalAlign=top;spacingLeft=4;spacingRight=4;overflow=hidden;rotatable=0;points=[[0,0.5],[1,0.5]];portConstraint=eastwest;" parent="Z_tI0dn7aJH7XG_BfM5y-2" vertex="1">
          <mxGeometry y="130" width="200" height="26" as="geometry" />
        </mxCell>
        <mxCell id="Z_tI0dn7aJH7XG_BfM5y-25" value="* gasPanel : JPanel" style="text;strokeColor=none;fillColor=none;align=left;verticalAlign=top;spacingLeft=4;spacingRight=4;overflow=hidden;rotatable=0;points=[[0,0.5],[1,0.5]];portConstraint=eastwest;" parent="Z_tI0dn7aJH7XG_BfM5y-2" vertex="1">
          <mxGeometry y="156" width="200" height="26" as="geometry" />
        </mxCell>
        <mxCell id="Z_tI0dn7aJH7XG_BfM5y-26" value="* gasSpinner : JSpinner " style="text;strokeColor=none;fillColor=none;align=left;verticalAlign=top;spacingLeft=4;spacingRight=4;overflow=hidden;rotatable=0;points=[[0,0.5],[1,0.5]];portConstraint=eastwest;" parent="Z_tI0dn7aJH7XG_BfM5y-2" vertex="1">
          <mxGeometry y="182" width="200" height="26" as="geometry" />
        </mxCell>
        <mxCell id="Z_tI0dn7aJH7XG_BfM5y-29" value="* gasAmount : int" style="text;strokeColor=none;fillColor=none;align=left;verticalAlign=top;spacingLeft=4;spacingRight=4;overflow=hidden;rotatable=0;points=[[0,0.5],[1,0.5]];portConstraint=eastwest;" parent="Z_tI0dn7aJH7XG_BfM5y-2" vertex="1">
          <mxGeometry y="208" width="200" height="26" as="geometry" />
        </mxCell>
        <mxCell id="Z_tI0dn7aJH7XG_BfM5y-31" value="* gasLabel : JLabel " style="text;strokeColor=none;fillColor=none;align=left;verticalAlign=top;spacingLeft=4;spacingRight=4;overflow=hidden;rotatable=0;points=[[0,0.5],[1,0.5]];portConstraint=eastwest;" parent="Z_tI0dn7aJH7XG_BfM5y-2" vertex="1">
          <mxGeometry y="234" width="200" height="26" as="geometry" />
        </mxCell>
        <mxCell id="Z_tI0dn7aJH7XG_BfM5y-34" value="* gasButton : JButton" style="text;strokeColor=none;fillColor=none;align=left;verticalAlign=top;spacingLeft=4;spacingRight=4;overflow=hidden;rotatable=0;points=[[0,0.5],[1,0.5]];portConstraint=eastwest;" parent="Z_tI0dn7aJH7XG_BfM5y-2" vertex="1">
          <mxGeometry y="260" width="200" height="26" as="geometry" />
        </mxCell>
        <mxCell id="Z_tI0dn7aJH7XG_BfM5y-37" value="* brakeButton : JButton" style="text;strokeColor=none;fillColor=none;align=left;verticalAlign=top;spacingLeft=4;spacingRight=4;overflow=hidden;rotatable=0;points=[[0,0.5],[1,0.5]];portConstraint=eastwest;" parent="Z_tI0dn7aJH7XG_BfM5y-2" vertex="1">
          <mxGeometry y="286" width="200" height="26" as="geometry" />
        </mxCell>
        <mxCell id="Z_tI0dn7aJH7XG_BfM5y-38" value="* turboOnButton : JButton" style="text;strokeColor=none;fillColor=none;align=left;verticalAlign=top;spacingLeft=4;spacingRight=4;overflow=hidden;rotatable=0;points=[[0,0.5],[1,0.5]];portConstraint=eastwest;" parent="Z_tI0dn7aJH7XG_BfM5y-2" vertex="1">
          <mxGeometry y="312" width="200" height="26" as="geometry" />
        </mxCell>
        <mxCell id="Z_tI0dn7aJH7XG_BfM5y-39" value="* turboOffButton : JButton" style="text;strokeColor=none;fillColor=none;align=left;verticalAlign=top;spacingLeft=4;spacingRight=4;overflow=hidden;rotatable=0;points=[[0,0.5],[1,0.5]];portConstraint=eastwest;" parent="Z_tI0dn7aJH7XG_BfM5y-2" vertex="1">
          <mxGeometry y="338" width="200" height="26" as="geometry" />
        </mxCell>
        <mxCell id="Z_tI0dn7aJH7XG_BfM5y-40" value="* liftBedButton : JButton" style="text;strokeColor=none;fillColor=none;align=left;verticalAlign=top;spacingLeft=4;spacingRight=4;overflow=hidden;rotatable=0;points=[[0,0.5],[1,0.5]];portConstraint=eastwest;" parent="Z_tI0dn7aJH7XG_BfM5y-2" vertex="1">
          <mxGeometry y="364" width="200" height="26" as="geometry" />
        </mxCell>
        <mxCell id="Z_tI0dn7aJH7XG_BfM5y-41" value="* lowerBedButton : JButton" style="text;strokeColor=none;fillColor=none;align=left;verticalAlign=top;spacingLeft=4;spacingRight=4;overflow=hidden;rotatable=0;points=[[0,0.5],[1,0.5]];portConstraint=eastwest;" parent="Z_tI0dn7aJH7XG_BfM5y-2" vertex="1">
          <mxGeometry y="390" width="200" height="26" as="geometry" />
        </mxCell>
        <mxCell id="Z_tI0dn7aJH7XG_BfM5y-42" value="* startButton : JButton" style="text;strokeColor=none;fillColor=none;align=left;verticalAlign=top;spacingLeft=4;spacingRight=4;overflow=hidden;rotatable=0;points=[[0,0.5],[1,0.5]];portConstraint=eastwest;" parent="Z_tI0dn7aJH7XG_BfM5y-2" vertex="1">
          <mxGeometry y="416" width="200" height="26" as="geometry" />
        </mxCell>
        <mxCell id="Z_tI0dn7aJH7XG_BfM5y-43" value="* stopButton : JButton" style="text;strokeColor=none;fillColor=none;align=left;verticalAlign=top;spacingLeft=4;spacingRight=4;overflow=hidden;rotatable=0;points=[[0,0.5],[1,0.5]];portConstraint=eastwest;" parent="Z_tI0dn7aJH7XG_BfM5y-2" vertex="1">
          <mxGeometry y="442" width="200" height="26" as="geometry" />
        </mxCell>
        <mxCell id="Z_tI0dn7aJH7XG_BfM5y-4" value="" style="line;strokeWidth=1;fillColor=none;align=left;verticalAlign=middle;spacingTop=-1;spacingLeft=3;spacingRight=3;rotatable=0;labelPosition=right;points=[];portConstraint=eastwest;" parent="Z_tI0dn7aJH7XG_BfM5y-2" vertex="1">
          <mxGeometry y="468" width="200" height="8" as="geometry" />
        </mxCell>
        <mxCell id="Z_tI0dn7aJH7XG_BfM5y-5" value="+ notInUse.CarView(framename : String, &#xa;                          cc: notInUse.CarController)" style="text;strokeColor=none;fillColor=none;align=left;verticalAlign=top;spacingLeft=4;spacingRight=4;overflow=hidden;rotatable=0;points=[[0,0.5],[1,0.5]];portConstraint=eastwest;" parent="Z_tI0dn7aJH7XG_BfM5y-2" vertex="1">
          <mxGeometry y="476" width="200" height="44" as="geometry" />
        </mxCell>
        <mxCell id="Z_tI0dn7aJH7XG_BfM5y-45" value="- initComponents(title : String) : void" style="text;strokeColor=none;fillColor=none;align=left;verticalAlign=top;spacingLeft=4;spacingRight=4;overflow=hidden;rotatable=0;points=[[0,0.5],[1,0.5]];portConstraint=eastwest;" parent="Z_tI0dn7aJH7XG_BfM5y-2" vertex="1">
          <mxGeometry y="520" width="200" height="26" as="geometry" />
        </mxCell>
        <mxCell id="Z_tI0dn7aJH7XG_BfM5y-6" value="JFrame" style="swimlane;fontStyle=1;align=center;verticalAlign=top;childLayout=stackLayout;horizontal=1;startSize=33;horizontalStack=0;resizeParent=1;resizeParentMax=0;resizeLast=0;collapsible=1;marginBottom=0;" parent="1" vertex="1">
          <mxGeometry x="2920" y="776.74" width="160" height="34" as="geometry" />
        </mxCell>
        <mxCell id="Z_tI0dn7aJH7XG_BfM5y-11" value="Extends" style="endArrow=block;endSize=16;endFill=0;html=1;exitX=0.5;exitY=0;exitDx=0;exitDy=0;entryX=0.5;entryY=1;entryDx=0;entryDy=0;" parent="1" source="Z_tI0dn7aJH7XG_BfM5y-2" target="Z_tI0dn7aJH7XG_BfM5y-6" edge="1">
          <mxGeometry width="160" relative="1" as="geometry">
            <mxPoint x="2910" y="921" as="sourcePoint" />
            <mxPoint x="3070" y="921" as="targetPoint" />
          </mxGeometry>
        </mxCell>
        <mxCell id="Z_tI0dn7aJH7XG_BfM5y-18" value="1" style="endArrow=open;html=1;endSize=12;startArrow=diamondThin;startSize=14;startFill=1;edgeStyle=orthogonalEdgeStyle;align=left;verticalAlign=bottom;exitX=1;exitY=0.5;exitDx=0;exitDy=0;entryX=0;entryY=0;entryDx=0;entryDy=0;" parent="1" target="Z_tI0dn7aJH7XG_BfM5y-46" edge="1">
          <mxGeometry x="-1" y="3" relative="1" as="geometry">
            <mxPoint x="3100" y="971" as="sourcePoint" />
            <mxPoint x="3520" y="320" as="targetPoint" />
            <Array as="points">
              <mxPoint x="3290" y="971" />
              <mxPoint x="3290" y="160" />
            </Array>
          </mxGeometry>
        </mxCell>
        <mxCell id="Z_tI0dn7aJH7XG_BfM5y-20" value="1" style="endArrow=open;html=1;endSize=12;startArrow=diamondThin;startSize=14;startFill=1;edgeStyle=orthogonalEdgeStyle;align=left;verticalAlign=bottom;exitX=1;exitY=0.5;exitDx=0;exitDy=0;entryX=0;entryY=0;entryDx=0;entryDy=0;" parent="1" source="Z_tI0dn7aJH7XG_BfM5y-16" target="Z_tI0dn7aJH7XG_BfM5y-72" edge="1">
          <mxGeometry x="-1" y="3" relative="1" as="geometry">
            <mxPoint x="3280" y="951" as="sourcePoint" />
            <mxPoint x="3560" y="932" as="targetPoint" />
            <Array as="points">
              <mxPoint x="3500" y="998" />
              <mxPoint x="3500" y="932" />
            </Array>
          </mxGeometry>
        </mxCell>
        <mxCell id="Z_tI0dn7aJH7XG_BfM5y-22" value="JPanel" style="swimlane;fontStyle=1;align=center;verticalAlign=top;childLayout=stackLayout;horizontal=1;startSize=33;horizontalStack=0;resizeParent=1;resizeParentMax=0;resizeLast=0;collapsible=1;marginBottom=0;" parent="1" vertex="1">
          <mxGeometry x="3290" y="1007" width="160" height="34" as="geometry" />
        </mxCell>
        <mxCell id="Z_tI0dn7aJH7XG_BfM5y-24" value="1" style="endArrow=open;html=1;endSize=12;startArrow=diamondThin;startSize=14;startFill=1;edgeStyle=orthogonalEdgeStyle;align=left;verticalAlign=bottom;exitX=1;exitY=0.5;exitDx=0;exitDy=0;" parent="1" source="Z_tI0dn7aJH7XG_BfM5y-21" target="Z_tI0dn7aJH7XG_BfM5y-22" edge="1">
          <mxGeometry x="-1" y="3" relative="1" as="geometry">
            <mxPoint x="3120" y="1015" as="sourcePoint" />
            <mxPoint x="3280" y="1015" as="targetPoint" />
            <Array as="points">
              <mxPoint x="3200" y="1024" />
              <mxPoint x="3200" y="1024" />
            </Array>
          </mxGeometry>
        </mxCell>
        <mxCell id="Z_tI0dn7aJH7XG_BfM5y-27" value="JSpinner" style="swimlane;fontStyle=1;align=center;verticalAlign=top;childLayout=stackLayout;horizontal=1;startSize=33;horizontalStack=0;resizeParent=1;resizeParentMax=0;resizeLast=0;collapsible=1;marginBottom=0;" parent="1" vertex="1">
          <mxGeometry x="3330" y="1059" width="160" height="34" as="geometry" />
        </mxCell>
        <mxCell id="Z_tI0dn7aJH7XG_BfM5y-28" value="1" style="endArrow=open;html=1;endSize=12;startArrow=diamondThin;startSize=14;startFill=1;edgeStyle=orthogonalEdgeStyle;align=left;verticalAlign=bottom;exitX=1;exitY=0.5;exitDx=0;exitDy=0;entryX=0;entryY=0.5;entryDx=0;entryDy=0;" parent="1" source="Z_tI0dn7aJH7XG_BfM5y-26" target="Z_tI0dn7aJH7XG_BfM5y-27" edge="1">
          <mxGeometry x="-1" y="3" relative="1" as="geometry">
            <mxPoint x="3120" y="1089" as="sourcePoint" />
            <mxPoint x="3280" y="1089" as="targetPoint" />
          </mxGeometry>
        </mxCell>
        <mxCell id="Z_tI0dn7aJH7XG_BfM5y-30" value="JLabel" style="swimlane;fontStyle=1;align=center;verticalAlign=top;childLayout=stackLayout;horizontal=1;startSize=33;horizontalStack=0;resizeParent=1;resizeParentMax=0;resizeLast=0;collapsible=1;marginBottom=0;" parent="1" vertex="1">
          <mxGeometry x="3380" y="1111" width="160" height="34" as="geometry" />
        </mxCell>
        <mxCell id="Z_tI0dn7aJH7XG_BfM5y-32" value="1" style="endArrow=open;html=1;endSize=12;startArrow=diamondThin;startSize=14;startFill=1;edgeStyle=orthogonalEdgeStyle;align=left;verticalAlign=bottom;exitX=1;exitY=0.5;exitDx=0;exitDy=0;entryX=0;entryY=0.5;entryDx=0;entryDy=0;" parent="1" source="Z_tI0dn7aJH7XG_BfM5y-31" target="Z_tI0dn7aJH7XG_BfM5y-30" edge="1">
          <mxGeometry x="-1" y="3" relative="1" as="geometry">
            <mxPoint x="3120" y="1271" as="sourcePoint" />
            <mxPoint x="3280" y="1271" as="targetPoint" />
            <Array as="points">
              <mxPoint x="3180" y="1128" />
              <mxPoint x="3180" y="1128" />
            </Array>
          </mxGeometry>
        </mxCell>
        <mxCell id="Z_tI0dn7aJH7XG_BfM5y-35" value="JButton" style="swimlane;fontStyle=1;align=center;verticalAlign=top;childLayout=stackLayout;horizontal=1;startSize=33;horizontalStack=0;resizeParent=1;resizeParentMax=0;resizeLast=0;collapsible=1;marginBottom=0;" parent="1" vertex="1">
          <mxGeometry x="3420" y="1181" width="160" height="34" as="geometry" />
        </mxCell>
        <mxCell id="Z_tI0dn7aJH7XG_BfM5y-36" value="1" style="endArrow=open;html=1;endSize=12;startArrow=diamondThin;startSize=14;startFill=1;edgeStyle=orthogonalEdgeStyle;align=left;verticalAlign=bottom;exitX=1;exitY=0.5;exitDx=0;exitDy=0;entryX=0;entryY=0.5;entryDx=0;entryDy=0;" parent="1" source="Z_tI0dn7aJH7XG_BfM5y-34" target="Z_tI0dn7aJH7XG_BfM5y-35" edge="1">
          <mxGeometry x="-1" y="3" relative="1" as="geometry">
            <mxPoint x="3070" y="1301" as="sourcePoint" />
            <mxPoint x="3230" y="1301" as="targetPoint" />
            <Array as="points">
              <mxPoint x="3160" y="1154" />
              <mxPoint x="3160" y="1198" />
            </Array>
          </mxGeometry>
        </mxCell>
        <mxCell id="Z_tI0dn7aJH7XG_BfM5y-46" value="notInUse.CarController" style="swimlane;fontStyle=1;align=center;verticalAlign=top;childLayout=stackLayout;horizontal=1;startSize=26;horizontalStack=0;resizeParent=1;resizeParentMax=0;resizeLast=0;collapsible=1;marginBottom=0;" parent="1" vertex="1">
          <mxGeometry x="3620" y="160" width="250" height="580" as="geometry" />
        </mxCell>
        <mxCell id="CP8bDHhk1HK1ON-Y0Xc3-2" value="&lt;&lt;final&gt;&gt; - delay : int " style="text;strokeColor=none;fillColor=none;align=left;verticalAlign=top;spacingLeft=4;spacingRight=4;overflow=hidden;rotatable=0;points=[[0,0.5],[1,0.5]];portConstraint=eastwest;" parent="Z_tI0dn7aJH7XG_BfM5y-46" vertex="1">
          <mxGeometry y="26" width="250" height="26" as="geometry" />
        </mxCell>
        <mxCell id="CP8bDHhk1HK1ON-Y0Xc3-5" value="- timer : Timer" style="text;strokeColor=none;fillColor=none;align=left;verticalAlign=top;spacingLeft=4;spacingRight=4;overflow=hidden;rotatable=0;points=[[0,0.5],[1,0.5]];portConstraint=eastwest;" parent="Z_tI0dn7aJH7XG_BfM5y-46" vertex="1">
          <mxGeometry y="52" width="250" height="26" as="geometry" />
        </mxCell>
        <mxCell id="Z_tI0dn7aJH7XG_BfM5y-53" value="* frame : notInUse.CarView" style="text;strokeColor=none;fillColor=none;align=left;verticalAlign=top;spacingLeft=4;spacingRight=4;overflow=hidden;rotatable=0;points=[[0,0.5],[1,0.5]];portConstraint=eastwest;" parent="Z_tI0dn7aJH7XG_BfM5y-46" vertex="1">
          <mxGeometry y="78" width="250" height="26" as="geometry" />
        </mxCell>
        <mxCell id="Qp99s9jOnblI94qDXLce-1" value="* vehicles : ArrayList&lt;Vehicle.Vehicle&gt;" style="text;strokeColor=none;fillColor=none;align=left;verticalAlign=top;spacingLeft=4;spacingRight=4;overflow=hidden;rotatable=0;points=[[0,0.5],[1,0.5]];portConstraint=eastwest;" vertex="1" parent="Z_tI0dn7aJH7XG_BfM5y-46">
          <mxGeometry y="104" width="250" height="26" as="geometry" />
        </mxCell>
        <mxCell id="Qp99s9jOnblI94qDXLce-2" value="* saabList : ArrayList&lt;Vehicle.Saab95&gt;" style="text;strokeColor=none;fillColor=none;align=left;verticalAlign=top;spacingLeft=4;spacingRight=4;overflow=hidden;rotatable=0;points=[[0,0.5],[1,0.5]];portConstraint=eastwest;" vertex="1" parent="Z_tI0dn7aJH7XG_BfM5y-46">
          <mxGeometry y="130" width="250" height="26" as="geometry" />
        </mxCell>
        <mxCell id="Z_tI0dn7aJH7XG_BfM5y-55" value="* scaniaList : ArrayList&lt;Vehicle.Scania&gt;" style="text;strokeColor=none;fillColor=none;align=left;verticalAlign=top;spacingLeft=4;spacingRight=4;overflow=hidden;rotatable=0;points=[[0,0.5],[1,0.5]];portConstraint=eastwest;" parent="Z_tI0dn7aJH7XG_BfM5y-46" vertex="1">
          <mxGeometry y="156" width="250" height="26" as="geometry" />
        </mxCell>
        <mxCell id="Z_tI0dn7aJH7XG_BfM5y-48" value="" style="line;strokeWidth=1;fillColor=none;align=left;verticalAlign=middle;spacingTop=-1;spacingLeft=3;spacingRight=3;rotatable=0;labelPosition=right;points=[];portConstraint=eastwest;" parent="Z_tI0dn7aJH7XG_BfM5y-46" vertex="1">
          <mxGeometry y="182" width="250" height="8" as="geometry" />
        </mxCell>
        <mxCell id="Z_tI0dn7aJH7XG_BfM5y-67" value="public static void main(String[] args)" style="text;strokeColor=none;fillColor=none;align=left;verticalAlign=top;spacingLeft=4;spacingRight=4;overflow=hidden;rotatable=0;points=[[0,0.5],[1,0.5]];portConstraint=eastwest;" parent="Z_tI0dn7aJH7XG_BfM5y-46" vertex="1">
          <mxGeometry y="190" width="250" height="26" as="geometry" />
        </mxCell>
        <mxCell id="CP8bDHhk1HK1ON-Y0Xc3-1" value="TimerListener" style="swimlane;fontStyle=1;align=center;verticalAlign=top;childLayout=stackLayout;horizontal=1;startSize=26;horizontalStack=0;resizeParent=1;resizeParentMax=0;resizeLast=0;collapsible=1;marginBottom=0;rounded=1;shadow=0;sketch=0;swimlaneFillColor=none;fillColor=none;strokeWidth=2;" parent="Z_tI0dn7aJH7XG_BfM5y-46" vertex="1">
          <mxGeometry y="216" width="250" height="156" as="geometry" />
        </mxCell>
        <mxCell id="CP8bDHhk1HK1ON-Y0Xc3-4" value="+ actionPerformed(e : ActionEvent) : void" style="text;strokeColor=none;fillColor=none;align=left;verticalAlign=top;spacingLeft=4;spacingRight=4;overflow=hidden;rotatable=0;points=[[0,0.5],[1,0.5]];portConstraint=eastwest;" parent="CP8bDHhk1HK1ON-Y0Xc3-1" vertex="1">
          <mxGeometry y="26" width="250" height="26" as="geometry" />
        </mxCell>
        <mxCell id="Qp99s9jOnblI94qDXLce-5" value="- isOutOfBoundsLeft(car : Vehicle.Vehicle) : boolean" style="text;strokeColor=none;fillColor=none;align=left;verticalAlign=top;spacingLeft=4;spacingRight=4;overflow=hidden;rotatable=0;points=[[0,0.5],[1,0.5]];portConstraint=eastwest;rounded=1;shadow=0;glass=1;sketch=0;" vertex="1" parent="CP8bDHhk1HK1ON-Y0Xc3-1">
          <mxGeometry y="52" width="250" height="26" as="geometry" />
        </mxCell>
        <mxCell id="Qp99s9jOnblI94qDXLce-7" value="- isOutOfBoundsRight(car : Vehicle.Vehicle) : boolean" style="text;strokeColor=none;fillColor=none;align=left;verticalAlign=top;spacingLeft=4;spacingRight=4;overflow=hidden;rotatable=0;points=[[0,0.5],[1,0.5]];portConstraint=eastwest;rounded=1;shadow=0;glass=1;sketch=0;" vertex="1" parent="CP8bDHhk1HK1ON-Y0Xc3-1">
          <mxGeometry y="78" width="250" height="26" as="geometry" />
        </mxCell>
        <mxCell id="Qp99s9jOnblI94qDXLce-8" value="- isOutOfBoundsUp(car : Vehicle.Vehicle) : boolean" style="text;strokeColor=none;fillColor=none;align=left;verticalAlign=top;spacingLeft=4;spacingRight=4;overflow=hidden;rotatable=0;points=[[0,0.5],[1,0.5]];portConstraint=eastwest;rounded=1;shadow=0;glass=1;sketch=0;" vertex="1" parent="CP8bDHhk1HK1ON-Y0Xc3-1">
          <mxGeometry y="104" width="250" height="26" as="geometry" />
        </mxCell>
        <mxCell id="Qp99s9jOnblI94qDXLce-9" value="- isOutOfBoundsDown(car : Vehicle.Vehicle) : boolean" style="text;strokeColor=none;fillColor=none;align=left;verticalAlign=top;spacingLeft=4;spacingRight=4;overflow=hidden;rotatable=0;points=[[0,0.5],[1,0.5]];portConstraint=eastwest;rounded=1;shadow=0;glass=1;sketch=0;" vertex="1" parent="CP8bDHhk1HK1ON-Y0Xc3-1">
          <mxGeometry y="130" width="250" height="26" as="geometry" />
        </mxCell>
        <mxCell id="Z_tI0dn7aJH7XG_BfM5y-69" value="* gas(amount : int) : void" style="text;strokeColor=none;fillColor=none;align=left;verticalAlign=top;spacingLeft=4;spacingRight=4;overflow=hidden;rotatable=0;points=[[0,0.5],[1,0.5]];portConstraint=eastwest;" parent="Z_tI0dn7aJH7XG_BfM5y-46" vertex="1">
          <mxGeometry y="372" width="250" height="26" as="geometry" />
        </mxCell>
        <mxCell id="Z_tI0dn7aJH7XG_BfM5y-68" value="* brake(amount : int) : void" style="text;strokeColor=none;fillColor=none;align=left;verticalAlign=top;spacingLeft=4;spacingRight=4;overflow=hidden;rotatable=0;points=[[0,0.5],[1,0.5]];portConstraint=eastwest;" parent="Z_tI0dn7aJH7XG_BfM5y-46" vertex="1">
          <mxGeometry y="398" width="250" height="26" as="geometry" />
        </mxCell>
        <mxCell id="Qp99s9jOnblI94qDXLce-11" value="+ turboOn(): void" style="text;strokeColor=none;fillColor=none;align=left;verticalAlign=top;spacingLeft=4;spacingRight=4;overflow=hidden;rotatable=0;points=[[0,0.5],[1,0.5]];portConstraint=eastwest;rounded=1;shadow=0;glass=1;sketch=0;" vertex="1" parent="Z_tI0dn7aJH7XG_BfM5y-46">
          <mxGeometry y="424" width="250" height="26" as="geometry" />
        </mxCell>
        <mxCell id="Qp99s9jOnblI94qDXLce-16" value="+ turboOff(): void" style="text;strokeColor=none;fillColor=none;align=left;verticalAlign=top;spacingLeft=4;spacingRight=4;overflow=hidden;rotatable=0;points=[[0,0.5],[1,0.5]];portConstraint=eastwest;rounded=1;shadow=0;glass=1;sketch=0;" vertex="1" parent="Z_tI0dn7aJH7XG_BfM5y-46">
          <mxGeometry y="450" width="250" height="26" as="geometry" />
        </mxCell>
        <mxCell id="Qp99s9jOnblI94qDXLce-14" value="+ liftBed(): void" style="text;strokeColor=none;fillColor=none;align=left;verticalAlign=top;spacingLeft=4;spacingRight=4;overflow=hidden;rotatable=0;points=[[0,0.5],[1,0.5]];portConstraint=eastwest;rounded=1;shadow=0;glass=1;sketch=0;" vertex="1" parent="Z_tI0dn7aJH7XG_BfM5y-46">
          <mxGeometry y="476" width="250" height="26" as="geometry" />
        </mxCell>
        <mxCell id="Qp99s9jOnblI94qDXLce-13" value="+ lowerBed() : void" style="text;strokeColor=none;fillColor=none;align=left;verticalAlign=top;spacingLeft=4;spacingRight=4;overflow=hidden;rotatable=0;points=[[0,0.5],[1,0.5]];portConstraint=eastwest;rounded=1;shadow=0;glass=1;sketch=0;" vertex="1" parent="Z_tI0dn7aJH7XG_BfM5y-46">
          <mxGeometry y="502" width="250" height="26" as="geometry" />
        </mxCell>
        <mxCell id="Qp99s9jOnblI94qDXLce-12" value="+ startAllVehicles() : void" style="text;strokeColor=none;fillColor=none;align=left;verticalAlign=top;spacingLeft=4;spacingRight=4;overflow=hidden;rotatable=0;points=[[0,0.5],[1,0.5]];portConstraint=eastwest;rounded=1;shadow=0;glass=1;sketch=0;" vertex="1" parent="Z_tI0dn7aJH7XG_BfM5y-46">
          <mxGeometry y="528" width="250" height="26" as="geometry" />
        </mxCell>
        <mxCell id="Qp99s9jOnblI94qDXLce-10" value="+ stopAllVehicles() : void" style="text;strokeColor=none;fillColor=none;align=left;verticalAlign=top;spacingLeft=4;spacingRight=4;overflow=hidden;rotatable=0;points=[[0,0.5],[1,0.5]];portConstraint=eastwest;rounded=1;shadow=0;glass=1;sketch=0;" vertex="1" parent="Z_tI0dn7aJH7XG_BfM5y-46">
          <mxGeometry y="554" width="250" height="26" as="geometry" />
        </mxCell>
        <mxCell id="Z_tI0dn7aJH7XG_BfM5y-56" value="Timer" style="swimlane;fontStyle=1;align=center;verticalAlign=top;childLayout=stackLayout;horizontal=1;startSize=33;horizontalStack=0;resizeParent=1;resizeParentMax=0;resizeLast=0;collapsible=1;marginBottom=0;" parent="1" vertex="1">
          <mxGeometry x="3980" y="208" width="160" height="34" as="geometry" />
        </mxCell>
        <mxCell id="Z_tI0dn7aJH7XG_BfM5y-65" value="" style="endArrow=block;dashed=1;endFill=0;endSize=12;html=1;exitX=1;exitY=0.25;exitDx=0;exitDy=0;" parent="1" source="CP8bDHhk1HK1ON-Y0Xc3-1" target="Z_tI0dn7aJH7XG_BfM5y-66" edge="1">
          <mxGeometry width="160" relative="1" as="geometry">
            <mxPoint x="4140" y="458.5" as="sourcePoint" />
            <mxPoint x="4300" y="827" as="targetPoint" />
          </mxGeometry>
        </mxCell>
        <mxCell id="Z_tI0dn7aJH7XG_BfM5y-66" value="«interface»&lt;br&gt;&lt;b&gt;ActionListener&lt;/b&gt;" style="html=1;" parent="1" vertex="1">
          <mxGeometry x="4005" y="390" width="110" height="50" as="geometry" />
        </mxCell>
        <mxCell id="Z_tI0dn7aJH7XG_BfM5y-72" value="notInUse.DrawPanel" style="swimlane;fontStyle=1;align=center;verticalAlign=top;childLayout=stackLayout;horizontal=1;startSize=26;horizontalStack=0;resizeParent=1;resizeParentMax=0;resizeLast=0;collapsible=1;marginBottom=0;" parent="1" vertex="1">
          <mxGeometry x="3620" y="932" width="290" height="216" as="geometry" />
        </mxCell>
        <mxCell id="Qp99s9jOnblI94qDXLce-17" value="* frame : notInUse.CarView" style="text;strokeColor=none;fillColor=none;align=left;verticalAlign=top;spacingLeft=4;spacingRight=4;overflow=hidden;rotatable=0;points=[[0,0.5],[1,0.5]];portConstraint=eastwest;rounded=1;shadow=0;glass=1;sketch=0;" vertex="1" parent="Z_tI0dn7aJH7XG_BfM5y-72">
          <mxGeometry y="26" width="290" height="26" as="geometry" />
        </mxCell>
        <mxCell id="Qp99s9jOnblI94qDXLce-19" value="* vehicles : List&lt;Vehicles&gt;" style="text;strokeColor=none;fillColor=none;align=left;verticalAlign=top;spacingLeft=4;spacingRight=4;overflow=hidden;rotatable=0;points=[[0,0.5],[1,0.5]];portConstraint=eastwest;rounded=1;shadow=0;glass=1;sketch=0;" vertex="1" parent="Z_tI0dn7aJH7XG_BfM5y-72">
          <mxGeometry y="52" width="290" height="26" as="geometry" />
        </mxCell>
        <mxCell id="Z_tI0dn7aJH7XG_BfM5y-73" value="* volvoImage : BufferedImage" style="text;strokeColor=none;fillColor=none;align=left;verticalAlign=top;spacingLeft=4;spacingRight=4;overflow=hidden;rotatable=0;points=[[0,0.5],[1,0.5]];portConstraint=eastwest;" parent="Z_tI0dn7aJH7XG_BfM5y-72" vertex="1">
          <mxGeometry y="78" width="290" height="26" as="geometry" />
        </mxCell>
        <mxCell id="Qp99s9jOnblI94qDXLce-20" value="* saabImage : BufferedImage" style="text;strokeColor=none;fillColor=none;align=left;verticalAlign=top;spacingLeft=4;spacingRight=4;overflow=hidden;rotatable=0;points=[[0,0.5],[1,0.5]];portConstraint=eastwest;" vertex="1" parent="Z_tI0dn7aJH7XG_BfM5y-72">
          <mxGeometry y="104" width="290" height="26" as="geometry" />
        </mxCell>
        <mxCell id="Qp99s9jOnblI94qDXLce-21" value="* scaniaImage : BufferedImage" style="text;strokeColor=none;fillColor=none;align=left;verticalAlign=top;spacingLeft=4;spacingRight=4;overflow=hidden;rotatable=0;points=[[0,0.5],[1,0.5]];portConstraint=eastwest;" vertex="1" parent="Z_tI0dn7aJH7XG_BfM5y-72">
          <mxGeometry y="130" width="290" height="26" as="geometry" />
        </mxCell>
        <mxCell id="Z_tI0dn7aJH7XG_BfM5y-74" value="" style="line;strokeWidth=1;fillColor=none;align=left;verticalAlign=middle;spacingTop=-1;spacingLeft=3;spacingRight=3;rotatable=0;labelPosition=right;points=[];portConstraint=eastwest;" parent="Z_tI0dn7aJH7XG_BfM5y-72" vertex="1">
          <mxGeometry y="156" width="290" height="8" as="geometry" />
        </mxCell>
        <mxCell id="Z_tI0dn7aJH7XG_BfM5y-87" value="+ notInUse.DrawPanel (x : int, y : int)" style="text;strokeColor=none;fillColor=none;align=left;verticalAlign=top;spacingLeft=4;spacingRight=4;overflow=hidden;rotatable=0;points=[[0,0.5],[1,0.5]];portConstraint=eastwest;" parent="Z_tI0dn7aJH7XG_BfM5y-72" vertex="1">
          <mxGeometry y="164" width="290" height="26" as="geometry" />
        </mxCell>
        <mxCell id="Z_tI0dn7aJH7XG_BfM5y-88" value="&lt;&lt;protected&gt;&gt; paintComponent(g : Graphics) : void" style="text;strokeColor=none;fillColor=none;align=left;verticalAlign=top;spacingLeft=4;spacingRight=4;overflow=hidden;rotatable=0;points=[[0,0.5],[1,0.5]];portConstraint=eastwest;" parent="Z_tI0dn7aJH7XG_BfM5y-72" vertex="1">
          <mxGeometry y="190" width="290" height="26" as="geometry" />
        </mxCell>
        <mxCell id="Z_tI0dn7aJH7XG_BfM5y-77" value="JPanel" style="swimlane;fontStyle=1;align=center;verticalAlign=top;childLayout=stackLayout;horizontal=1;startSize=33;horizontalStack=0;resizeParent=1;resizeParentMax=0;resizeLast=0;collapsible=1;marginBottom=0;" parent="1" vertex="1">
          <mxGeometry x="3685" y="840" width="160" height="34" as="geometry" />
        </mxCell>
        <mxCell id="Z_tI0dn7aJH7XG_BfM5y-78" value="Extends" style="endArrow=block;endSize=16;endFill=0;html=1;exitX=0.5;exitY=0;exitDx=0;exitDy=0;entryX=0.5;entryY=1;entryDx=0;entryDy=0;" parent="1" source="Z_tI0dn7aJH7XG_BfM5y-72" target="Z_tI0dn7aJH7XG_BfM5y-77" edge="1">
          <mxGeometry width="160" relative="1" as="geometry">
            <mxPoint x="3860" y="931" as="sourcePoint" />
            <mxPoint x="4020" y="931" as="targetPoint" />
          </mxGeometry>
        </mxCell>
        <mxCell id="Z_tI0dn7aJH7XG_BfM5y-81" value="BufferedImage" style="swimlane;fontStyle=1;align=center;verticalAlign=top;childLayout=stackLayout;horizontal=1;startSize=33;horizontalStack=0;resizeParent=1;resizeParentMax=0;resizeLast=0;collapsible=1;marginBottom=0;" parent="1" vertex="1">
          <mxGeometry x="4000" y="954" width="160" height="34" as="geometry" />
        </mxCell>
        <mxCell id="Z_tI0dn7aJH7XG_BfM5y-84" value="1" style="endArrow=open;html=1;endSize=12;startArrow=diamondThin;startSize=14;startFill=1;edgeStyle=orthogonalEdgeStyle;align=left;verticalAlign=bottom;entryX=0;entryY=0.5;entryDx=0;entryDy=0;" parent="1" source="Z_tI0dn7aJH7XG_BfM5y-73" target="Z_tI0dn7aJH7XG_BfM5y-81" edge="1">
          <mxGeometry x="-1" y="3" relative="1" as="geometry">
            <mxPoint x="3920" y="1011" as="sourcePoint" />
            <mxPoint x="4080" y="1011" as="targetPoint" />
          </mxGeometry>
        </mxCell>
        <mxCell id="qwOJfiIofRjbFZid4ON6-1" value="1" style="endArrow=open;html=1;endSize=12;startArrow=diamondThin;startSize=14;startFill=1;edgeStyle=orthogonalEdgeStyle;align=left;verticalAlign=bottom;exitX=0;exitY=0.5;exitDx=0;exitDy=0;entryX=1;entryY=0;entryDx=0;entryDy=0;" parent="1" source="Z_tI0dn7aJH7XG_BfM5y-53" target="Z_tI0dn7aJH7XG_BfM5y-2" edge="1">
          <mxGeometry x="-0.9541" relative="1" as="geometry">
            <mxPoint x="3290" y="740" as="sourcePoint" />
            <mxPoint x="3450" y="740" as="targetPoint" />
            <Array as="points">
              <mxPoint x="3100" y="251" />
            </Array>
            <mxPoint as="offset" />
          </mxGeometry>
        </mxCell>
        <mxCell id="CP8bDHhk1HK1ON-Y0Xc3-7" value="1" style="endArrow=open;html=1;endSize=12;startArrow=diamondThin;startSize=14;startFill=1;edgeStyle=orthogonalEdgeStyle;align=left;verticalAlign=bottom;exitX=1;exitY=0.5;exitDx=0;exitDy=0;entryX=0;entryY=0.5;entryDx=0;entryDy=0;" parent="1" source="CP8bDHhk1HK1ON-Y0Xc3-5" target="Z_tI0dn7aJH7XG_BfM5y-56" edge="1">
          <mxGeometry x="-1" y="3" relative="1" as="geometry">
            <mxPoint x="3870" y="-13.5" as="sourcePoint" />
            <mxPoint x="4030" y="-13.5" as="targetPoint" />
          </mxGeometry>
        </mxCell>
        <mxCell id="Qp99s9jOnblI94qDXLce-18" value="1" style="endArrow=open;html=1;endSize=12;startArrow=diamondThin;startSize=14;startFill=1;edgeStyle=orthogonalEdgeStyle;align=left;verticalAlign=bottom;exitX=0;exitY=0.5;exitDx=0;exitDy=0;" edge="1" parent="1" source="Qp99s9jOnblI94qDXLce-17">
          <mxGeometry x="-0.875" relative="1" as="geometry">
            <mxPoint x="3480" y="881" as="sourcePoint" />
            <mxPoint x="3100" y="880" as="targetPoint" />
            <Array as="points">
              <mxPoint x="3560" y="971" />
              <mxPoint x="3560" y="880" />
            </Array>
            <mxPoint as="offset" />
          </mxGeometry>
        </mxCell>
      </root>
    </mxGraphModel>
  </diagram>
</mxfile>
